<?xml version="1.0" encoding="utf-8"?>
<!-- Generator: Adobe Illustrator 24.3.0, SVG Export Plug-In . SVG Version: 6.00 Build 0)  -->
<svg version="1.1" xmlns="http://www.w3.org/2000/svg" xmlns:xlink="http://www.w3.org/1999/xlink" x="0px" y="0px"
	 viewBox="0 0 288 288" enable-background="new 0 0 288 288" xml:space="preserve">
<g id="Layer_1_xA0_Image_1_">
	
		<image overflow="visible" width="810" height="925" id="Layer_1_xA0_Image" xlink:href="7C9275A778BABD66.png"  transform="matrix(0.24 0 0 0.24 46.08 33.12)">
	</image>
</g>
<g id="Layer_2_2_" enable-background="new    ">
	
		<path id="SVGID_1_" enable-background="new    " d="M240,124.8v-2.64c-0.08-1.28-0.16-2.56-0.24-3.84h-0.24v-1.92
			c-0.631-2.155-0.798-4.892-1.44-6.96v-1.2h-0.24v-0.96h-0.24v-0.96h-0.24v-0.96h-0.24v-0.96h-0.24v-0.72h-0.24
			c-0.08-0.64-0.16-1.28-0.24-1.92h-0.24v-0.48h-0.24v-0.96h-0.24V99.6h-0.24v-0.72h-0.24v-0.72h-0.24
			c-0.08-0.48-0.16-0.96-0.24-1.44h-0.24v-0.48h-0.24v-0.72H234v-0.48h-0.24v-0.72h-0.24V93.6h-0.24c-0.08-0.32-0.16-0.64-0.24-0.96
			h-0.24v-0.72h-0.24c-0.08-0.32-0.16-0.64-0.24-0.96h-0.24v-0.72h-0.24c-0.16-0.48-0.32-0.96-0.48-1.44h-0.24v-0.48h-0.24v-0.48
			h-0.24v-0.48h-0.24v-0.48h-0.24V86.4h-0.24v-0.48h-0.24v-0.48h-0.24v-0.48h-0.24v-0.48L228.72,84v-0.48
			c-0.16-0.08-0.32-0.16-0.48-0.24V82.8l-0.48-0.48v-0.48h-0.24v-0.48c-0.16-0.08-0.32-0.16-0.48-0.24v-0.48h-0.24v-0.48
			c-0.16-0.08-0.32-0.16-0.48-0.24c-0.08-0.24-0.16-0.48-0.24-0.72h-0.24c-0.08-0.32-0.16-0.64-0.24-0.96h-0.24
			c-0.08-0.24-0.16-0.48-0.24-0.72c-0.16-0.08-0.32-0.16-0.48-0.24V76.8c-0.16-0.08-0.32-0.16-0.48-0.24v-0.48
			c-0.16-0.08-0.32-0.16-0.48-0.24v-0.48h-0.24c-0.08-0.24-0.16-0.48-0.24-0.72c-0.16-0.08-0.32-0.16-0.48-0.24v-0.48
			c-0.24-0.16-0.48-0.32-0.72-0.48v-0.48c-0.24-0.16-0.48-0.32-0.72-0.48V72c-0.24-0.16-0.48-0.32-0.72-0.48v-0.48
			c-0.24-0.16-0.48-0.32-0.72-0.48v-0.48c-0.4-0.32-0.8-0.64-1.2-0.96v-0.48c-0.4-0.32-0.8-0.64-1.2-0.96V67.2
			c-0.64-0.56-1.28-1.12-1.92-1.68v-0.48c-0.96-0.88-1.92-1.76-2.88-2.64c-1.12-1.2-2.24-2.4-3.36-3.6h-0.48
			c-0.48-0.56-0.96-1.12-1.44-1.68h-0.48c-0.32-0.4-0.64-0.8-0.96-1.2h-0.48c-0.32-0.4-0.64-0.8-0.96-1.2H204
			c-0.24-0.32-0.48-0.64-0.72-0.96h-0.48c-0.08-0.16-0.16-0.32-0.24-0.48h-0.48c-0.32-0.4-0.64-0.8-0.96-1.2h-0.48
			c-0.08-0.16-0.16-0.32-0.24-0.48h-0.48c-0.16-0.24-0.32-0.48-0.48-0.72c-0.32-0.08-0.64-0.16-0.96-0.24
			c-0.08-0.16-0.16-0.32-0.24-0.48h-0.48c-0.16-0.24-0.32-0.48-0.48-0.72h-0.48l-0.24-0.48c-0.32-0.08-0.64-0.16-0.96-0.24
			c-0.08-0.16-0.16-0.32-0.24-0.48c-0.24-0.08-0.48-0.16-0.72-0.24v-0.24c-0.32-0.08-0.64-0.16-0.96-0.24
			c-0.08-0.16-0.16-0.32-0.24-0.48c-0.48-0.16-0.96-0.32-1.44-0.48c-0.08-0.16-0.16-0.32-0.24-0.48c-0.48-0.16-0.96-0.32-1.44-0.48
			c-0.08-0.16-0.16-0.32-0.24-0.48h-0.48l-0.48-0.48h-0.48V44.4h-0.48v-0.24h-0.48v-0.24c-0.48-0.16-0.96-0.32-1.44-0.48V43.2
			c-0.896-0.373-1.975,0.265-3.12-0.24v-0.24c-0.32-0.08-0.64-0.16-0.96-0.24c-0.16-0.24-0.32-0.48-0.48-0.72h-0.48
			c-0.08-0.24-0.16-0.48-0.24-0.72c-0.278-0.331-0.777-0.267-1.2-0.48v-0.24c-3.36-1.12-6.72-2.24-10.08-3.36
			c-0.64-0.08-1.28-0.16-1.92-0.24v-0.24h-0.72v-0.24h-0.96V36c-0.72-0.08-1.44-0.16-2.16-0.24v-0.24h-1.44v-0.24
			c-1.76-0.24-3.52-0.48-5.28-0.72c-2.594-0.777-6.113-0.942-9.36-0.96c-1.946-0.011-5.288-0.718-7.44-0.24v0.24
			c-0.24-0.08-0.48-0.16-0.72-0.24v0.24h-2.64c-1.28,0.08-2.56,0.16-3.84,0.24v0.24h-2.16v0.24h-1.92v0.24h-1.44v0.24h-1.44
			c-3.76,0.88-7.52,1.76-11.28,2.64v0.24h-0.72v0.24h-0.72v0.24h-0.72v0.24h-0.72v0.24h-0.72v0.24c-0.48,0.08-0.96,0.16-1.44,0.24
			v0.24h-0.48v0.24c-0.48,0.08-0.96,0.16-1.44,0.24v0.24h-0.48v0.24h-0.72v0.24h-0.48v0.24h-0.72v0.24h-0.48v0.24h-0.72v0.24h-0.48
			v0.24c-0.48,0.16-0.96,0.32-1.44,0.48v0.24h-0.72v0.24c-0.48,0.16-0.96,0.32-1.44,0.48v0.24h-0.48v0.24h-0.48v0.24h-0.48v0.24
			H98.4v0.24h-0.48l-0.48,0.48h-0.48c-0.08,0.16-0.16,0.32-0.24,0.48h-0.48l-0.48,0.48h-0.48v0.24H94.8l-0.24,0.48
			c-0.48,0.16-0.96,0.32-1.44,0.48v0.24c-0.24,0.08-0.48,0.16-0.72,0.24c-0.08,0.16-0.16,0.32-0.24,0.48
			c-0.32,0.08-0.64,0.16-0.96,0.24c-0.08,0.16-0.16,0.32-0.24,0.48h-0.48c-0.08,0.16-0.16,0.32-0.24,0.48h-0.48l-0.24,0.48
			c-0.32,0.08-0.64,0.16-0.96,0.24c-0.16,0.24-0.32,0.48-0.48,0.72H87.6c-0.08,0.16-0.16,0.32-0.24,0.48
			c-0.24,0.08-0.48,0.16-0.72,0.24v0.24h-0.48c-0.16,0.24-0.32,0.48-0.48,0.72H85.2c-0.16,0.24-0.32,0.48-0.48,0.72h-0.48
			c-0.16,0.24-0.32,0.48-0.48,0.72h-0.48c-0.24,0.32-0.48,0.64-0.72,0.96h-0.48c-0.24,0.32-0.48,0.64-0.72,0.96h-0.48
			c-0.4,0.48-0.8,0.96-1.2,1.44H79.2c-0.48,0.56-0.96,1.12-1.44,1.68h-0.48c-0.8,0.88-1.6,1.76-2.4,2.64
			c-2.086,2.085-3.989,3.79-5.76,6.24c-0.4,0.32-0.8,0.64-1.2,0.96v0.48c-0.16,0.08-0.32,0.16-0.48,0.24v0.24
			c-0.16,0.08-0.32,0.16-0.48,0.24v0.48c-0.32,0.24-0.64,0.48-0.96,0.72v0.48c-0.24,0.16-0.48,0.32-0.72,0.48v0.48
			c-0.24,0.16-0.48,0.32-0.72,0.48v0.48c-0.16,0.08-0.32,0.16-0.48,0.24v0.48c-0.24,0.16-0.48,0.32-0.72,0.48v0.48
			c-0.16,0.08-0.32,0.16-0.48,0.24c-0.08,0.24-0.16,0.48-0.24,0.72H62.4v0.48c-0.16,0.08-0.32,0.16-0.48,0.24v0.48
			c-0.16,0.08-0.32,0.16-0.48,0.24c-0.08,0.24-0.16,0.48-0.24,0.72h-0.24v0.48h-0.24v0.48c-0.16,0.08-0.32,0.16-0.48,0.24
			c-0.08,0.32-0.16,0.64-0.24,0.96c-0.16,0.08-0.32,0.16-0.48,0.24v0.48h-0.24v0.48c-0.16,0.08-0.32,0.16-0.48,0.24v0.48l-0.48,0.48
			v0.48h-0.24v0.48c-0.16,0.08-0.32,0.16-0.48,0.24v0.48l-0.48,0.48v0.48h-0.24v0.48h-0.24v0.48H56.4v0.48h-0.24v0.48h-0.24v0.48
			h-0.24v0.48h-0.24v0.48H55.2v0.48h-0.24c-0.08,0.4-0.16,0.8-0.24,1.2h-0.24c-0.08,0.32-0.16,0.64-0.24,0.96H54v0.72h-0.24v0.48
			h-0.24v0.72h-0.24c-0.08,0.32-0.16,0.64-0.24,0.96H52.8c-1.04,3.12-2.08,6.24-3.12,9.36c-0.08,0.64-0.16,1.28-0.24,1.92H49.2v0.96
			h-0.24v0.96h-0.24c-0.08,0.72-0.16,1.44-0.24,2.16h-0.24v1.2H48v1.44h-0.24c-0.08,0.96-0.16,1.92-0.24,2.88h-0.24v1.68h-0.24v2.16
			H46.8c-0.08,2.56-0.16,5.12-0.24,7.68c-0.49,1.678-0.02,3.353,0,5.04c0.05,4.171,0.226,8.43,1.2,11.76v1.44H48
			c0.538,1.783,0.204,4.758,1.92,5.28v0.24h0.24v-0.24h0.48V150h1.2c1.437-0.462,3.306-1.055,5.04-1.2v0.48
			c0.709-0.27,0.267,0.038,0.24-0.72c1.28-0.24,2.56-0.48,3.84-0.72v0.72h0.24l0.24,0.24c0.16-0.24,0.32-0.48,0.48-0.72
			c0.247-0.151,1.659-0.537,2.16-0.24v0.24h0.24v-0.96h1.2c0.495-2.683,0-5.75,0-8.88c0-4.522,0.134-9.376,1.2-12.96
			c0.16-1.28,0.32-2.56,0.48-3.84h0.24v-0.96h0.24v-0.96h0.24v-0.96h0.24v-0.96h0.24v-0.96h0.24v-0.72h0.24v-0.72h0.24
			c0.16-0.8,0.32-1.6,0.48-2.4h0.24v-0.48h0.24c0.16-0.72,0.32-1.44,0.48-2.16h0.24v-0.48h0.24v-0.72h0.24
			c0.08-0.32,0.16-0.64,0.24-0.96h0.24v-0.72H72l0.24-0.96h0.24v-0.72h0.24c0.16-0.48,0.32-0.96,0.48-1.44h0.24v-0.48h0.24v-0.48
			h0.24v-0.48h0.24v-0.48h0.24v-0.48l0.48-0.48v-0.48c0.16-0.08,0.32-0.16,0.48-0.24c0.16-0.48,0.32-0.96,0.48-1.44
			c0.16-0.08,0.32-0.16,0.48-0.24c0.16-0.48,0.32-0.96,0.48-1.44h0.24c0.08-0.24,0.16-0.48,0.24-0.72c0.16-0.08,0.32-0.16,0.48-0.24
			c0.08-0.32,0.16-0.64,0.24-0.96c0.16-0.08,0.32-0.16,0.48-0.24V94.8c0.16-0.08,0.32-0.16,0.48-0.24v-0.48
			c0.24-0.16,0.48-0.32,0.72-0.48v-0.48c0.16-0.08,0.32-0.16,0.48-0.24V92.4c0.24-0.16,0.48-0.32,0.72-0.48v-0.48
			c0.24-0.16,0.48-0.32,0.72-0.48v-0.48c0.24-0.16,0.48-0.32,0.72-0.48v-0.48c0.32-0.24,0.64-0.48,0.96-0.72v-0.48
			c0.32-0.24,0.64-0.48,0.96-0.72v-0.24c0.16-0.08,0.32-0.16,0.48-0.24v-0.48c0.8-0.72,1.6-1.44,2.4-2.16V84
			c0.56-0.48,1.12-0.96,1.68-1.44c0.16-0.24,0.32-0.48,0.48-0.72h0.48c0.8-0.88,1.6-1.76,2.4-2.64h0.48c0.32-0.4,0.64-0.8,0.96-1.2
			h0.48v-0.24c0.24-0.16,0.48-0.32,0.72-0.48l0.24-0.48h0.48c0.16-0.24,0.32-0.48,0.48-0.72h0.48c0.16-0.24,0.32-0.48,0.48-0.72
			h0.48c0.16-0.24,0.32-0.48,0.48-0.72h0.48c0.08-0.16,0.16-0.32,0.24-0.48h0.48c0.08-0.16,0.16-0.32,0.24-0.48h0.48l0.24-0.48h0.48
			c0.08-0.16,0.16-0.32,0.24-0.48h0.48c0.08-0.16,0.16-0.32,0.24-0.48H102c0.08-0.16,0.16-0.32,0.24-0.48h0.48v-0.24h0.48
			c0.08-0.16,0.16-0.32,0.24-0.48c0.32-0.08,0.64-0.16,0.96-0.24c0.08-0.16,0.16-0.32,0.24-0.48h0.48l0.48-0.48h0.48V69.6h0.48
			c0.08-0.16,0.16-0.32,0.24-0.48c0.48-0.16,0.96-0.32,1.44-0.48V68.4h0.48v-0.24h0.48v-0.24c0.48-0.16,0.96-0.32,1.44-0.48V67.2
			h0.72v-0.24h0.48v-0.24c0.32-0.08,0.64-0.16,0.96-0.24v-0.24h0.72V66H114v-0.24c0.4-0.08,0.8-0.16,1.2-0.24v-0.24
			c0.48-0.08,0.96-0.16,1.44-0.24V64.8h0.48v-0.24c3.04-0.88,6.08-1.76,9.12-2.64h1.2c1.094-0.34,2.71-0.627,3.84-0.96h1.68v-0.24
			h1.92c1.265-0.361,2.946-0.478,4.56-0.48h2.4V60h3.36v0.24h4.32v0.24h2.64v0.24h1.92v0.24h1.68v0.24h1.44v0.24h1.2v0.24h1.2v0.24
			h0.96v0.24h1.2v0.24h0.96v0.24h0.96c3.28,1.12,6.56,2.24,9.84,3.36v0.24c0.32,0.08,0.64,0.16,0.96,0.24v0.24h0.72v0.24h0.48v0.24
			c0.32,0.08,0.64,0.16,0.96,0.24v0.24h0.48v0.24h0.48v0.24h0.48v0.24h0.48v0.24h0.48v0.24h0.48v0.24H180v0.24h0.48l0.48,0.48h0.48
			c0.08,0.16,0.16,0.32,0.24,0.48c0.48,0.16,0.96,0.32,1.44,0.48c0.08,0.16,0.16,0.32,0.24,0.48h0.48v0.24h0.48
			c0.08,0.16,0.16,0.32,0.24,0.48h0.48c0.08,0.16,0.16,0.32,0.24,0.48h0.48c0.08,0.16,0.16,0.32,0.24,0.48h0.48l0.24,0.48h0.48
			c0.08,0.16,0.16,0.32,0.24,0.48h0.48c0.08,0.16,0.16,0.32,0.24,0.48h0.48c0.16,0.24,0.32,0.48,0.48,0.72h0.48
			c0.08,0.16,0.16,0.32,0.24,0.48h0.48c0.24,0.32,0.48,0.64,0.72,0.96h0.48c0.24,0.32,0.48,0.64,0.72,0.96h0.48
			c0.24,0.32,0.48,0.64,0.72,0.96h0.48c0.48,0.56,0.96,1.12,1.44,1.68h0.48c1.28,1.36,2.56,2.72,3.84,4.08
			c0.48,0.4,0.96,0.8,1.44,1.2v0.48c0.56,0.48,1.12,0.96,1.68,1.44v0.48c0.4,0.32,0.8,0.64,1.2,0.96v0.48
			c0.32,0.24,0.64,0.48,0.96,0.72v0.48c0.24,0.16,0.48,0.32,0.72,0.48v0.48c0.24,0.16,0.48,0.32,0.72,0.48v0.48
			c0.16,0.08,0.32,0.16,0.48,0.24v0.48c0.24,0.16,0.48,0.32,0.72,0.48v0.48c0.16,0.08,0.32,0.16,0.48,0.24
			c0.08,0.24,0.16,0.48,0.24,0.72h0.24v0.48c0.16,0.08,0.32,0.16,0.48,0.24c0.08,0.32,0.16,0.64,0.24,0.96
			c0.16,0.08,0.32,0.16,0.48,0.24c0.08,0.24,0.16,0.48,0.24,0.72h0.24v0.48h0.24v0.48c0.16,0.08,0.32,0.16,0.48,0.24v0.48l0.48,0.48
			v0.48h0.24v0.48c0.16,0.08,0.32,0.16,0.48,0.24v0.48l0.48,0.48v0.48h0.24v0.48h0.24v0.48h0.24v0.48h0.24
			c0.16,0.48,0.32,0.96,0.48,1.44h0.24v0.72h0.24v0.48h0.24c0.08,0.32,0.16,0.64,0.24,0.96h0.24v0.72h0.24v0.48h0.24
			c1.04,3.12,2.08,6.24,3.12,9.36v0.96h0.24V120h0.24v1.2h0.24v0.96h0.24v1.2h0.24c0.16,1.52,0.32,3.04,0.48,4.56h0.24v1.92h0.24
			v2.64c0.538,1.892,0.514,9.613,0,11.52c0.08,1.04,0.16,2.08,0.24,3.12H222v0.24h0.24v0.72c0.48-0.08,0.96-0.16,1.44-0.24v0.24
			c0.4,0.08,0.8,0.16,1.2,0.24v-0.48h0.24v1.2h0.24l0.24-1.2c1.04,0.16,2.08,0.32,3.12,0.48v0.96c2.226-0.98,6.585,0.006,8.4,0.96
			c0.252-0.461,0.756-0.98,0.96-1.44v-0.72h0.24v-0.72h0.24v-0.96h0.24c0.08-0.72,0.16-1.44,0.24-2.16h0.24v-2.64h0.24v-2.64h0.24
			v-2.16H240v-4.08h0.24v-7.92H240z M120.72,228h-0.24c-0.16-1.04-0.32-2.08-0.48-3.12h-0.24c-0.16-0.88-0.32-1.76-0.48-2.64h-0.24
			c-0.08-0.56-0.16-1.12-0.24-1.68h-0.24c-0.16-0.8-0.32-1.6-0.48-2.4h-0.24v-0.72h-0.24v-0.72h-0.24v-0.96
			c-2.55-7.134-4.957-14.638-7.92-21.36v-0.72h-0.24c-0.08-0.4-0.16-0.8-0.24-1.2h-0.24V192h-0.24v-0.72h-0.24
			c-0.08-0.32-0.16-0.64-0.24-0.96h-0.24v-0.72h-0.24c-0.08-0.32-0.16-0.64-0.24-0.96h-0.24v-0.48h-0.24v-0.72h-0.24
			c-0.08-0.32-0.16-0.64-0.24-0.96h-0.24v-0.72h-0.24c-0.16-0.48-0.32-0.96-0.48-1.44h-0.24v-0.48h-0.24v-0.48h-0.24v-0.48h-0.24
			v-0.48l-0.48-0.48v-0.48c-0.16-0.08-0.32-0.16-0.48-0.24c-0.16-0.48-0.32-0.96-0.48-1.44c-0.16-0.08-0.32-0.16-0.48-0.24v-0.48
			h-0.24v-0.48c-0.16-0.08-0.32-0.16-0.48-0.24c-0.08-0.24-0.16-0.48-0.24-0.72c-0.32-0.24-0.64-0.48-0.96-0.72v-0.48
			c-0.16-0.08-0.32-0.16-0.48-0.24c-0.24-0.32-0.48-0.64-0.72-0.96h-0.48c-0.16-0.24-0.32-0.48-0.48-0.72h-0.48
			c-0.08-0.16-0.16-0.32-0.24-0.48H97.2c-0.08-0.16-0.16-0.32-0.24-0.48h-0.48v-0.24H96v-0.24h-0.72
			c-2.596-0.987-5.176-0.76-7.68,0.24h-0.72v0.24c-0.48,0.16-0.96,0.32-1.44,0.48c-0.08,0.16-0.16,0.32-0.24,0.48h-0.48
			c-0.48,0.56-0.96,1.12-1.44,1.68c-0.24,0.16-0.48,0.32-0.72,0.48v0.48c-0.16,0.08-0.32,0.16-0.48,0.24
			c-0.379,0.414-0.797,1.06-0.96,1.68h-0.24v1.44h-0.24c-0.118,0.522,0.24,0.72,0.24,0.72v3.12c0.56,2.8,1.12,5.6,1.68,8.4h0.24
			v0.72h0.24c0.16,0.96,0.32,1.92,0.48,2.88h0.24c0.16,0.88,0.32,1.76,0.48,2.64h0.24c0.16,0.8,0.32,1.6,0.48,2.4h0.24
			c0.08,0.56,0.16,1.12,0.24,1.68h0.24v0.72h0.24v0.72h0.24v0.72h0.24v0.72h0.24v0.72h0.24c0.08,0.56,0.16,1.12,0.24,1.68h0.24v0.48
			h0.24v0.72h0.24c0.16,0.8,0.32,1.6,0.48,2.4h0.24v0.48h0.24v0.72h0.24v0.72h0.24v0.72h0.24v0.72h0.24v0.48H90
			c0.16,0.72,0.32,1.44,0.48,2.16h0.24v0.48h0.24c0.08,0.48,0.16,0.96,0.24,1.44h0.24v0.48h0.24c0.08,0.48,0.16,0.96,0.24,1.44h0.24
			v0.48h0.24v0.72h0.24c0.08,0.4,0.16,0.8,0.24,1.2h0.24v0.48h0.24v0.72h0.24l0.24,1.2h0.24v0.48h0.24v0.72h0.24
			c0.08,0.32,0.16,0.64,0.24,0.96h0.24v0.72h0.24c0.08,0.32,0.16,0.64,0.24,0.96h0.24v0.72H96c0.08,0.32,0.16,0.64,0.24,0.96h0.24
			v0.48h0.24v0.72h0.24c0.16,0.48,0.32,0.96,0.48,1.44h0.24v0.48h0.24v0.72h0.24c0.16,0.48,0.32,0.96,0.48,1.44h0.24v0.48h0.24v0.48
			h0.24v0.48h0.24v0.48l0.48,0.48v0.48c0.16,0.08,0.32,0.16,0.48,0.24c0.16,0.48,0.32,0.96,0.48,1.44c0.16,0.08,0.32,0.16,0.48,0.24
			c0.08,0.32,0.16,0.64,0.24,0.96c0.16,0.08,0.32,0.16,0.48,0.24v0.48h0.24c0.08,0.24,0.16,0.48,0.24,0.72
			c0.16,0.08,0.32,0.16,0.48,0.24c0.08,0.24,0.16,0.48,0.24,0.72c0.48,0.08,0.96,0.16,1.44,0.24v0.48
			c0.551,0.147,0.578,0.211,0.96,0.48v0.24h0.72v0.24c0.64,0.08,1.28,0.16,1.92,0.24v0.24c2.141,0.639,5.648-0.846,6.72-1.44h0.48
			c0.08-0.16,0.16-0.32,0.24-0.48c0.32-0.08,0.64-0.16,0.96-0.24c0.24-0.32,0.48-0.64,0.72-0.96h0.48c0.24-0.32,0.48-0.64,0.72-0.96
			h0.24c2.208-3.105,3.354-8.472,1.92-13.2C120.88,229.6,120.8,228.8,120.72,228z M206.88,179.04l-0.24-0.96
			c-0.4-0.32-0.8-0.64-1.2-0.96v-0.48c-0.32-0.24-0.64-0.48-0.96-0.72c-0.4-0.48-0.8-0.96-1.2-1.44h-0.48
			c-0.08-0.16-0.16-0.32-0.24-0.48h-0.48v-0.24c-0.32-0.08-0.64-0.16-0.96-0.24v-0.24c-0.48-0.08-0.96-0.16-1.44-0.24v-0.24h-0.96
			v-0.24h-1.68v-0.24c-1.254-0.378-3.625,0.443-4.32,0.72H192v0.24h-0.48v0.24h-0.48c-0.08,0.16-0.16,0.32-0.24,0.48h-0.48
			c-0.08,0.16-0.16,0.32-0.24,0.48h-0.48c-0.16,0.24-0.32,0.48-0.48,0.72h-0.48c-0.24,0.32-0.48,0.64-0.72,0.96
			c-0.16,0.08-0.32,0.16-0.48,0.24v0.48c-0.32,0.24-0.64,0.48-0.96,0.72v0.48c-0.16,0.08-0.32,0.16-0.48,0.24
			c-0.08,0.24-0.16,0.48-0.24,0.72h-0.24v0.48c-0.16,0.08-0.32,0.16-0.48,0.24v0.48l-0.48,0.48v0.48c-0.16,0.08-0.32,0.16-0.48,0.24
			c-0.16,0.48-0.32,0.96-0.48,1.44h-0.24v0.48h-0.24v0.48h-0.24v0.48h-0.24v0.48h-0.24v0.48h-0.24v0.48h-0.24
			c-0.08,0.4-0.16,0.8-0.24,1.2h-0.24l-0.24,0.96h-0.24v0.72h-0.24c-0.08,0.32-0.16,0.64-0.24,0.96h-0.24v0.72H180
			c-0.08,0.32-0.16,0.64-0.24,0.96h-0.24V192h-0.24v0.48h-0.24c-0.48,1.44-0.96,2.88-1.44,4.32h-0.24v0.48h-0.24
			c-0.08,0.48-0.16,0.96-0.24,1.44h-0.24v0.48h-0.24c-0.08,0.48-0.16,0.96-0.24,1.44h-0.24v0.48h-0.24
			c-0.08,0.48-0.16,0.96-0.24,1.44h-0.24v0.48h-0.24v0.72h-0.24v0.72h-0.24v0.72h-0.24v0.72H174v0.72h-0.24v0.48h-0.24v0.72h-0.24
			v0.72h-0.24v0.72h-0.24V210h-0.24v0.72h-0.24v0.72h-0.24v0.72h-0.24v0.72h-0.24v0.72h-0.24v0.72h-0.24
			c-0.08,0.48-0.16,0.96-0.24,1.44h-0.24c-0.24,1.04-0.48,2.08-0.72,3.12h-0.24v0.96h-0.24v0.72h-0.24v0.96h-0.24v0.72h-0.24
			c-0.16,0.88-0.32,1.76-0.48,2.64H168c-0.16,1.04-0.32,2.08-0.48,3.12h-0.24v1.2h-0.24v1.2h-0.24v1.44h-0.24v2.64
			c-0.051,0.336-0.147-0.086-0.24,0.24c0.08,1.12,0.16,2.24,0.24,3.36h0.24v1.2c0.56,1.2,1.12,2.4,1.68,3.6
			c0.24,0.16,0.48,0.32,0.72,0.48v0.48c0.24,0.16,0.48,0.32,0.72,0.48v0.24h0.48c0.24,0.32,0.48,0.64,0.72,0.96
			c0.32,0.08,0.64,0.16,0.96,0.24c0.08,0.16,0.16,0.32,0.24,0.48h0.48v0.24h0.48v0.24H174v0.24h0.48v0.24
			c0.595,0.24,4.082,0.782,5.04,0.48v-0.24c0.64-0.08,1.28-0.16,1.92-0.24c0.454-0.186,0.99-0.71,1.44-0.96
			c0.08-0.24,0.16-0.48,0.24-0.72h0.48v-0.48c0.673-0.088,0.784,0.077,0.48-0.48c0.24,0.08,0.48,0.16,0.72,0.24l0.24-0.48
			c0.24-0.16,0.48-0.32,0.72-0.48v-0.48c0.16-0.08,0.32-0.16,0.48-0.24v-0.48h0.24v-0.48h0.24v-0.48c0.16-0.08,0.32-0.16,0.48-0.24
			v-0.48l0.48-0.48V240h0.24v-0.48c0.16-0.08,0.32-0.16,0.48-0.24v-0.48h0.24v-0.48h0.24v-0.72h0.24v-0.48
			c0.16-0.08,0.32-0.16,0.48-0.24v-0.48h0.24v-0.48h0.24v-0.72h0.24v-0.48h0.24v-0.48h0.24v-0.48h0.24v-0.48h0.24v-0.48h0.24v-0.72
			h0.24v-0.48H192v-0.48h0.24v-0.48h0.24v-0.72h0.24c0.08-0.4,0.16-0.8,0.24-1.2h0.24c0.08-0.32,0.16-0.64,0.24-0.96h0.24v-0.72
			h0.24v-0.48h0.24c0.08-0.48,0.16-0.96,0.24-1.44h0.24c0.08-0.32,0.16-0.64,0.24-0.96h0.24v-0.72h0.24v-0.48h0.24v-0.72h0.24v-0.48
			h0.24c0.08-0.48,0.16-0.96,0.24-1.44h0.24v-0.48h0.24v-0.72h0.24v-0.48h0.24v-0.96h0.24v-0.48h0.24v-0.72H198v-0.72h0.24v-0.48
			h0.24c0.08-0.48,0.16-0.96,0.24-1.44h0.24c0.08-0.48,0.16-0.96,0.24-1.44h0.24v-0.72h0.24v-0.72h0.24v-0.72h0.24v-0.48h0.24v-0.96
			h0.24v-0.72h0.24v-0.72h0.24v-0.72h0.24v-0.72h0.24v-0.72h0.24c0.16-0.72,0.32-1.44,0.48-2.16h0.24v-0.96h0.24v-0.72h0.24v-0.96
			h0.24v-0.72h0.24v-0.72h0.24c0.16-0.88,0.32-1.76,0.48-2.64h0.24c0.08-0.56,0.16-1.12,0.24-1.68h0.24
			c0.16-0.96,0.32-1.92,0.48-2.88h0.24v-1.2h0.24v-0.96h0.24v-1.2h0.24v-1.44h0.24v-1.2h0.24v-1.44h0.24v-2.16h0.24
			c-0.08-1.04-0.16-2.08-0.24-3.12H206.88z"/>

	<g clip-path="url(#SVGID_2_)">
		
			<image overflow="visible" width="1200" height="1200" id="Layer_2_xA0_Image" xlink:href="7C9275A778BABD6A.png"  transform="matrix(0.24 0 0 0.24 0 0)">
		</image>
	</g>
</g>
<g id="Layer_3_xA0_Image_1_">
	
		<image overflow="visible" width="808" height="901" id="Layer_3_xA0_Image" xlink:href="7C9275A778BABD6D.png"  transform="matrix(0.24 0 0 0.24 46.08 33.12)">
	</image>
</g>
</svg>
