<?xml version="1.0" encoding="utf-8"?>
<!-- Generator: Adobe Illustrator 24.3.0, SVG Export Plug-In . SVG Version: 6.00 Build 0)  -->
<svg version="1.1" id="Layer_1" xmlns="http://www.w3.org/2000/svg" xmlns:xlink="http://www.w3.org/1999/xlink" x="0px" y="0px"
	 viewBox="0 0 1597.3 802.7" enable-background="new 0 0 1597.3 802.7" xml:space="preserve">
<g id="Linning_2_" enable-background="new    ">
	<path id="SVGID_1_" d="M966.1,82c0-0.7,0-1.3,0-2c-0.7-0.7-1.3-1.3-2-2c-2,0.6-3.1,2.8-4,3c-2.6,0.6-4.8-2.2-8-1c-0.7,0-1.3,0-2,0
		c0,1.3,0,2.7,0,4c-4.1-0.4-8.1-3.5-13-2c-10.3,3.1-12.2,8.8-26,9c-0.1,2.9-0.7,1.5,0,3c-0.9,2.4-1.1,1.6-2,4c-2.1-0.4-4.6-1-6-2
		c-7.8,0.4-7.3,3.9-11,8c0.8,4.5,2.8,5.2,6,7c4.6,1.5,15.1-9.5,20-12c3.7-0.7,7.3-1.3,11-2c11.2-4.9,24-13.2,35-13
		C964.8,83.3,965.4,82.7,966.1,82z M1528.1,122c-0.6-6.3-5.8-11.5-11-13c-3.6-2.4-14.5-1.2-20-1c-10.7,7.5-27.5,3.5-36,16
		c-1,2.7-2,5.3-3,8c-3,4.9-8.8,10.6-11,16c-1.4,3.3-0.3,5.4-2,8c-1.8,2.7-9.5,7.2-10,8c0,2.7,0,5.3,0,8c-2,5.9-9.9,14.9-16,17
		c-2.6,1.1-3.8-0.9-7-2c-0.5,1.3-1.2,3.9-2,5c-3.6,9-42.9,10.6-55,14c-23.7,6.6-51.3,13.6-76,20c-8.9,2.3-16.3-0.4-26,2
		c-10.6,2.6-29.4,2.5-40,0c-11-2.6-35.2-1.5-41-8c-4.4,1.2-14.8,16-18,20c-1.3,0-2.7,0-4,0c-6.3-7.5-13.5-9.1-20-15
		c-4.3-3.9-6.2-10.5-11-14c-7.6-5.6-12.5-11.5-19-18c-1.6-1.6-4.5-2.3-6-4c-6.1-6.8-8.7-18.5-16-24c-3.6-2.7-9-7.5-13-9
		c-4.9-1.8-7.7-0.1-11-3c-10.5-9.2-18.8-21.4-33-27c-26-10.2-57-18.5-83-2c0,0.7,0,1.3,0,2c1.6,1.1,0.8,1.1,3,2
		c4.3,1.8,12.2-4.8,15-6c7.1,1.5,15.6-4.2,25-2c9.1,2.1,20.7,4.3,28,9c2.1,1.3,3.1,4.6,5,6c4.7,3.5,10.4,4.4,15,8
		c3,2.3,4.2,7.4,7,10c4.6,4.2,11.3,5.8,16,10c3.8,3.4,6.3,8.6,10,12c2.9,2.7,7.6,3.8,10,7c1.7,2.2,2.1,4.9,4,7
		c4.7,5.1,11.4,8.8,16,14c2.8,3.1,3.6,7.5,7,10c4.1,3,8.9,4,13,7c4.9,3.6,7.5,10.9,12,15c17.2,15.8,37.6,28.6,61,38
		c7.1,2.9,16.2,11.3,22,14c6.7,0.7,13.3,1.3,20,2c3.2,1.2,7.1,4.8,10,6c4.7,2,33.4,2.6,40,1c14-3.4,32.7-4.8,46-8c4.7,0,9.3,0,14,0
		c9.4-2.3,22.6-5.7,32-8c6,0,12,0,18,0c1.3-0.7,6.9-7.9,9-9c5.7-3,12.6-0.2,20-2c8.8-2.2,25.1-8.1,32-13c3.4-2.4,5.2-7.9,8-11
		c3.4-3.7,8.6-6.2,12-10c5.4-5.9,10.8-17.5,14-25c3.3-7.7,0.8-15.1,3-24c2.5-10.2,4-21.7,8-32c7-18.3,20.7-20.6,36-30
		C1528.5,122.3,1528.9,123,1528.1,122z"/>
</g>
<g id="Laces_2_" enable-background="new    ">
	<path id="SVGID_3_" d="M952.1,79c0,0.7,0,1.3,0,2c6.7,0,13.3,0,20,0c0-0.7,0-1.3,0-2C965.4,79,958.8,79,952.1,79z M938.1,127
		c0-0.7,0-1.3,0-2c-2.6-2.3-5.4-3.7-8-6c0-0.7,0-1.3,0-2c-2.5-1.8-5.4-0.3-8-2c-0.5-0.4-1.5-3.7-2-4c-4.4-2.5-16.9,0.3-22-2
		c-3.1-1.4-32.6-4.6-38-2c0,0.7,0,1.3,0,2c-2.8,1.5-5.4,0.2-8,2c-1.5,1.1-2.5,4.9-4,6c-1.3,0-2.7,0-4,0c-1.4,1-2.5,5.1-4,6
		c-3.3,0-6.7,0-10,0c-2.3,1.3-6.2,8.1-10,10c-2.7,0-5.3,0-8,0l-4,4c-1.3,0-2.7,0-4,0c0,0.7,0,1.3,0,2c-4,3.4-8.3,6.3-12,10
		c-0.8,0.8-1.1,3.4-2,4c-1.3,0-2.7,0-4,0c-1.4,1-2.5,5.1-4,6c-4,0-8,0-12,0c0,0.7,0,1.3,0,2c-4.7,0-9.3,0-14,0c0,0.7,0,1.3,0,2
		c-5.3,0-10.7,0-16,0c0,0.7,0,1.3,0,2c-2.7,0-5.3,0-8,0c0,0.7,0,1.3,0,2c-2.7,0-5.3,0-8,0c-1.5,0.9-2.6,5-4,6c-2.5,1.8-5.5,0.3-8,2
		c-1.5,1.1-2.5,4.9-4,6c-2.1,1.5-4.2,0.4-6,2c-0.7,0.6-1.3,3.6-2,4c-2.7,0-5.3,0-8,0c-0.5,0.2-6,6-6,6c-3.3,0-6.7,0-10,0
		c0,0.7,0,1.3,0,2c-1.3,0-2.7,0-4,0l-4,4c-2.7,0-5.3,0-8,0c-0.4,0.2-1.6,3.8-2,4c-4.4,2.4-15.5-0.8-20,2c0,0.7,0,1.3,0,2
		c-2.7,2.2-5.4,3.7-8,6c0,0.7,0,1.3,0,2c-1.3,0-2.7,0-4,0c-0.7,0.5-1.3,3.5-2,4c-1.3,0-2.7,0-4,0c-1.6,1.1-2.5,4.9-4,6
		c-2.1,1.5-4.2,0.4-6,2c-0.7,0.6-1.3,3.6-2,4c-5.3,3.3-20.5,2.9-24,8c-13.2-0.1-10.6,2.6-18,6c0,4.7,0,9.3,0,14
		c-8.1,0-15.5,0.8-21,2c1.3,1.3,2.7,2.7,4,4c0,0.7,0,1.3,0,2c-2.5,2.1-5.7,4.8-7,8c-4.8-0.4-5.6-1.1-6-6c-2.9,1.2-11.4,4.5-14,0
		c-8,0-16,0-24,0c-1,0.6-17.4,18.6-18,20c-0.7,0-1.3,0-2,0c1.6,1.5,2,1.6,5,2c0-1,0-2,0-3c1,0,2,0,3,0c1-2,2-4,3-6
		c3.6,0.5,2.5-0.5,4,2c1.2,4.4-9,21.2-9,33c-3.6-1.6-4.4-4.4-8-6c0-6,0-12,0-18c-3.6,0.5-2.5-0.5-4,2c-6.7,0-13.3,0-20,0
		c-4.8,2.7-7.9,11.2-14,14c-0.2,8.3-2,12.5-2,22c11.8,1.9,6.1,11.4,12,16c1.3,0,2.7,0,4,0c0.7,0.5,1.3,3.5,2,4c1.3,0,2.7,0,4,0
		c0.7,0.5,1.3,3.6,2,4c9.2,6.2,19,2.6,30,2c1.9-12.5,4.4-30.2-6-36c4.6-7.7,25.6-9,30-16c10.8,1.9,10.6,13.3,18,18c2,0,4,0,6,0l4,4
		c6.1,3,14.6-0.9,16-4c6.2,0.1,10.3-0.6,14-2c0.4-15.4,0.6-27.7-10-32c0-1.3,0-2.7,0-4c8.2-0.5,10-5,18-6c0-4.7,0-9.3,0-14
		c9.2,1.3,19.6,9.8,24,16c0,1.3,0,2.7,0,4c0.7,0,1.3,0,2,0c1.4,1.6,2.4,4.9,4,6c9.9,6.9,24.8,2.5,36,2c0.4-16.5,1.4-31.3-10-36
		c4-8.8,23.1-8.7,28-16c15.1,0.7,21.3,14.7,32,20c4.1,2,16.7,0,18-2c6.5-0.3,5.9-2.1,10-4c0.4-15.9-2.7-28-14-32
		c2.1-3.6,32.1-15.4,38-16c0-2.7,0-5.3,0-8c3.9,1.6,22.2,25.8,24,30c16,0.1,21.1-2.1,32-6c0.3-13.5-0.7-28.1-10-32
		c4-8.8,25.2-8.4,30-16c9.1,3.9,14.1,13.3,22,18c4.3,2.6,7-1,10,4c13.8,0.1,13.5-2.7,22-6c0.3-13.7-2.8-26.1-12-30
		c1.5-2.9,11.4-8.6,14-4c11,0.3,18.4-1.4,22-8c6.3,2.4,10.7,7.2,16,10c2,0,4,0,6,0c0.5,0.3,1.5,3.7,2,4c3.9,2.2,5.6-1.6,8,2
		c11.5,0,14.2-3.1,22-6C956.3,138.3,949.9,135.4,938.1,127z M620.1,249c-10.4,0.1-9.9-3.2-16-6c0-1.3,0-2.7,0-4
		c6.8-0.7,17.6-4.6,20-10c0.7,0,1.3,0,2,0C625.7,237.3,622.4,243,620.1,249z M658.1,241c-1.3,0-2.7,0-4,0c1.2-3.1,2.1-4.8,2-10
		c1.3,0,2.7,0,4,0c1.1,2.5,1.4,3,4,4C662.5,239.1,660.1,237.8,658.1,241z M715.1,202c-1.1,0.8-0.9,0.6-3,1c-0.3,6.4-2,8.5-2,16
		c-11.4-0.2-13-4.9-21-7c0-1,0-2,0-3c4.3-0.1,8.2-0.1,11-2c0.5-0.4,1.5-3.7,2-4c3.3,0,6.7,0,10,0c0.9-0.6,1.7-3.1,3-4
		c0.3,0.3,0.7,0.7,1,1C715.5,201.7,715.9,201,715.1,202z M818.1,173c0.3,0.7,0.7,1.3,1,2c-2.3,0-4.7,0-7,0c0-2.7,0-5.3,0-8
		c4.8,0.6,6.3,2.6,10,4C820.9,174.7,820.9,171.3,818.1,173z M848.1,149c-3.6-0.5-2.5,0.5-4-2c-5.7,0.1-8.6-0.7-12-2
		c1.2-5.4,3.9-4,6-8c3.3,0,6.7,0,10,0C848.1,141,848.1,145,848.1,149z"/>
</g>
<g id="bottom_sole_2_" enable-background="new    ">
	<path id="SVGID_5_" d="M1593.1,633c-1.2-3-2.3-2.8-4-5c-0.7,0-1.3,0-2,0c0.1,46.1-21,89.5-51,105c-15.3,7.9-37.5,7-60,7
		c-14.3,0-31.8-0.8-43,2c-16.7,0-33.3,0-50,0c-10.5,1.1-25.6,2-39,2c-7.7,0-15.3,0-23,0c-22.1,5.5-55.4,2-81,2
		c-53.7,0-107.3,0-161,0c-136.2,0-258.2,16-393,16c-6.8,0-12.6,0.9-17,2c-29.7,0-59.3,0-89,0c-14.3,0-28.7,0-43,0
		c-6.8-1.7-21.2-2.3-28-4c-6.7,0-13.3,0-20,0c-19.5-4.9-46.5-6.2-66-12c-4,0-8,0-12,0c-22.7-5.7-48.6-5.6-72-12
		c-39.3-10.7-78.2-20-114-33c-4-0.7-8-1.3-12-2c-9.1-3.4-19.3-10-28-14c-27-12.2-53.7-20.3-79-34c-4.5-2.4-8.7-7.5-13-10
		c-10.2-5.9-20.5-10.4-29-18c-5.5-4.9-23.1-26-25-33c-0.7-2.7,1.5-3.6,0-7c-3.2-7.6-9.6-15.9-12-25c-4.2-15.9-2.4-46.8-10-58
		c-1.3-2.4,0.5-0.7-2-2c-4.1-2.1-10,1.9-13,4c-4.3,23-1.8,56.5,6,72c2.6,5.2,10.2,10.4,12,16c-1,6-2,12-3,18c2.7,2.6,4.3,6.4,7,9
		c2,2,5,2.9,7,5c4.1-0.3,5.9-0.9,8-3c10.2,1.2,15.1,12.1,21,18c1.6,1.6,4.5,2.3,6,4c5.8,6.6,5.9,16.6,15,20c3.3,1.5,9.7-3.1,16-1
		c2.3,0.8,4.2,4,6,5c10,5.8,20.6,10.3,31,15c1.6,8.8,5.5,18.4,13,21c6.6,4.6,19.4-0.4,22-4c7,0.5,33.2,10.2,37,14c3,3,1.8,6.9,4,11
		c2.1,4,10.3,9.5,15,11c8.3,5.5,18.8-3.4,22-7c12.7,1.2,21.3,7.3,34,8c0,2.7,0,4.6,1,6c1,8.6,10.1,13,15,18c9.4-0.2,18.1-6,22-12
		c14.9,0.4,23.4,6.1,38,6c0.2,2.3,0.2,2.8,1,4c0.7,6.2,3.1,5.6,6,9c2,2.4,2.3,6.3,5,8c11,6.9,24.4-9.8,30-12c0.9-0.4,30.5,3.1,33,5
		c4.7,3.3,2.9,7.1,6,12c1.2,1.8,9.2,10.6,11,12c0.6,0.2,17.2-5.2,20-7c2.5-1.6,4.7-7.2,6-10c12.8-2.4,25.7,3,40,3c0,2,0,4,0,6
		c4.9,4.8,9.3,11,14,16c3.1,0.1,6.3,0.1,8-1c9.4-0.9,9.8-6.4,15-11c0.3-2.7,0.7-5.3,1-8c7.3-0.1,29.7-1.8,34,1c6,2.6,7.1,16.3,18,20
		c11.8,7.7,23.2-13.6,26-20c5.7-1.2,24.7-3.5,30,0c5.9,2.5,3.4,8.4,7,13c2.3,2.9,8.3,3.4,11,6c10.8,0,14.2-2.7,21-6
		c1.2-6.1,2.8-10.5,5-15c5.7-1.2,24.7-3.5,30,0c5.9,2.6,13.6,24.3,24,18c8.1-0.9,9.7-7.3,15-11c0.3-3.3,0.7-6.7,1-10
		c14.5-0.1,24.6-2.1,40-2c0.2,2.3,0.2,2.8,1,4c1.1,9.8,10.2,8.2,15,14c7.4-0.8,19.5-15.3,23-21c8.9-1.1,20.6-1.1,31-1
		c0.2,2.3,0.2,2.8,1,4c1.5,4.3,8.8,9.7,13,11c1,0.8,0.2,0.4,2,1c3.5-3.8,8.5-7.3,13-10c0.5-2.6,1-4.4,1-8c7.1-0.2,22.8-3.1,26-1
		c5.1,2.1,5.7,9,10,12c2.2,1.5,4.2,1.3,6,3c11.9-0.1,14.5-8.5,18-17c8.2-1.6,20.2-1.1,30-1c0,1.3,0,2.7,0,4c3.7,3.6,8.9,7.9,12,12
		c10.4-0.8,16.4-9.2,20-17c5.9-1.2,14.6-1.1,22-1c5.7,5.9,14.9,9.7,20,16c8.7-0.3,11.6-4.6,17-8c0.5-2.6,1-4.4,1-8
		c10.7,0,21.3,0,32,0c0,1.3,0,2.7,0,4c5.7,5.7,10.6,12,22,12c5.1-5.6,8.5-8.8,14-12c0-1.3,0-2.7,0-4c12.7,0,25.3,0,38,0
		c0.2,2.3,0.2,2.8,1,4c0.9,7.8,7.4,10.7,11,16c16.2,0.4,21.3-8.3,26-19c9.4-1.9,22.9-1.1,34-1c0,2,0,4,0,6c3.4,3.3,6.3,5.8,11,8
		c0.3,2,0.7,4,1,6c2.7,0,5.3,0,8,0c6.7-6.9,13.5-11.7,18-21c6.4-1.3,28.2-3.8,34,0c4.7,2,4.3,7.2,8,10c4.2,3.2,8.5,5.3,12,9
		c1.3,0,2.7,0,4,0c6.9-7,13.5-11.2,18-21c1.7-0.6,1-0.2,2-1c10,0,20,0,30,0c2.3,1.1,1.6,3.8,3,6c2.1,3.2,7.7,5.9,11,8
		c0,1.3,0,2.7,0,4c4,0,8,0,12,0c3.2-3.4,9.2-9.5,13-12c0.3-2.7,0.7-5.3,1-8c8.7,0,17.3,0,26,0c5.1,5.2,12.7,10.2,14,19
		c3.3-0.7,7.4-1.1,12-1c4.3-3.3,8.7-6.7,13-10c3-4.6,0.8-9.8,5-13c6.2-4.7,14.1-4.3,20-8c4.6-2.9,24-24,27-29
		c5.7-9.6,5.9-20.4,10-32C1590.5,675.3,1600.3,641.3,1593.1,633z"/>
</g>
<g id="sole_membrane_2_" enable-background="new    ">
	<path id="SVGID_7_" d="M1525.1,632c-6,0-12,0-18,0c-11.4,2.8-29.3,4-42,4c-0.5,7.6-3,12.2-6,17c-14.4,2.9-31.9,3-50,3
		c-8,0-16,0-24,0c-3.1,0.8-6,2-11,2c-14.3,0-28.7,0-43,0c-9.6,2.3-28.4,1.7-38,4c-6.7,0-13.3,0-20,0c-7.9,1.9-21.9-0.5-32,2
		c-12.7,3.1-29,4.1-44,4c-5-5.5-10.4-16.5-18-19c-3.9-2.4-14.2-1-20-1c-18,0-36,0-54,0c-6.8,1.7-21.2,2.3-28,4c-6.7,0-13.3,0-20,0
		c-7.9,2-21.9-0.5-32,2c-28.3,7-64.5,3.2-92,10c-6.7,0-13.3,0-20,0c-11.7,2.9-27.4,0.9-40,4c-27.1,6.8-62.9,1.3-90,8
		c-4.7,0-9.3,0-14,0c-27.4,6.8-63.8,3-92,10c-14.7,0-29.3,0-44,0c-17.5,1.7-46.6,4.2-64,0c-15-3.7-37.6,1.5-52-2c-12,0-24,0-36,0
		c-5.7-1.4-16.2-0.1-24-2c-26.7-6.6-60-3.6-86-10c-6.7,0-13.3,0-20,0c-20.3-5.1-47.8-5-68-10c-9.7-2.4-16.6,0.4-26-2
		c-22.6-5.7-50.3-10.4-72-16c-11-2.9-19.8-1.3-30-5c-9.5-3.4-22.5-6.6-32-10c-4.7-0.7-9.3-1.3-14-2c-13.5-4.8-27.9-11.4-46-11
		c0,1.3,0,2.7,0,4c44.4,43.8,112.4,62.2,174,89c8.1,3.5,15.2,2.3,24,5c9.2,2.8,20.6,7.6,30,11c6,1,12,2,18,3
		c12.4,3.3,27.3,6.7,40,10c6.7,0.7,13.3,1.3,20,2c24.9,6.3,55.3,7.8,80,14c4.7,0,9.3,0,14,0c7.8,1.9,18.9,4.2,26,6
		c6.7,0,13.3,0,20,0c6.8,1.7,21.2,2.3,28,4c14,0,28,0,42,0c28.8,0,69.2,3.9,94-2c10.7,0,21.3,0,32,0c25.9,0,53.3,1,74-4
		c8.7,0,17.3,0,26,0c10.3-2.5,27.5,1,40-2c3.8-0.9,8-2,14-2c11.3,0,22.7,0,34,0c10.3-2.5,27.5,1,40-2c2.3-0.6,4.4-1.9,8-2
		c8,0,16,0,24,0c13-3.2,33.6,1.5,48-2c13.5-3.3,34.3-2,51-2c31,0,62,0,93,0c35.7,0,71.3,0,107,0c18.5,0,41.8,1.7,57-2
		c5.3,0,10.7,0,16,0c14.6,0,32.5,0.8,44-2c5.3,0,10.7,0,16,0c13.4,0,29.6,0.5,40-2c8.3,0,16.7,0,25,0c26.2,0,57.3,1.8,75-7
		c28.1-14,50.5-61.2,50-105C1564.8,628.2,1543,627.6,1525.1,632z"/>
</g>
<g id="top_sole_2_" enable-background="new    ">
	<path id="SVGID_9_" d="M1183.1,635c-19.1-4-55.6-5.9-76-1c-8.7,0-17.3,0-26,0c-13,3.2-31.3,2.9-44,6c-8.7-0.3-17.3-0.7-26-1
		c-13.8,4.1-34.9,3.3-50,7c-10.1,2.5-24-2.1-30-1c-12.9,2.3-33.3,3.9-46,7c-9.3,0-18.7,0-28,0c-4.8,1.2-15.2,2.8-20,4
		c-10,0-20,0-30,0c-14.2,3.5-34.1,2.6-48,6c-6.7,0-13.3,0-20,0c-6.6,1.6-17.4,2.3-25,4c-5.7,0-11.3,0-17,0c-12,3-30.8,2-46,2
		c-5.3,0-10.7,0-16,0c-20.1,4.6-49.5,2-73,2c-11,0-22,0-33,0c-20.3-4.9-47.9-1.1-68-6c-12,0-24,0-36,0c-49.2-12.1-114-10-162-22
		c-9.7-2.4-17.1,0.3-26-2c-41.1-10.7-89-15-128-29c-12.2-4.4-25.7-7.2-38-12c-9.6-3.8-18.4-11-32-11c1.1,11.7,9.8,18.1,15,26
		c24.2,0.6,42.7,9.7,62,16c7.7,1.3,15.3,2.7,23,4c19.9,5.5,44.3,10.8,64,16c2.7,0,5.3,0,8,0c27.4,7,59.6,8.9,88,16
		c12.2,3,21.9-1,34,2c22.8,5.6,52.8,4.5,76,10c6,0,12,0,18,0c24.2,5.9,55.5,9.6,84,9c14-0.3,38.1-4.3,53-1c7.6,1.7,17.8,2,28,2
		c13.1,0,28.9,0.4,39-2c8.3,0,16.7,0,25,0c17.3,0,34.6-0.5,49-4c6.7,0,13.3,0,20,0c12.9-3.2,31.9-3,44-6c4.7,0,9.3,0,14,0
		c17.8-4.4,42.4-1.7,60-6c8.7,0,17.3,0,26,0c6.7-1.6,20-2.3,28-3c6.3,0,12.7,0,19,0c18.1-4.1,40-4.3,59-9c7.3,0,14.7,0,22,0
		c8.8-2.1,24.3-3.9,34-4c8,0,16,0,24,0c6.3-1.5,19.7-2.5,26-4c6.7,0,13.3,0,20,0c15.6-3.8,64.7-4.4,82-1c1-0.8,0.2-0.4,2-1
		c0.1-3.5,0.3-8-1-10C1183.8,637,1183.4,636,1183.1,635z M1566.1,592c-7.4,1.8-10.6,12.3-11,19c-7.4,1.4-16.4-1.7-24,0
		c-8.4,1.9-17.3,4.9-26,7c-9.5,2.3-29-1.2-36,3c-1,0.3-2,0.7-3,1c-0.7,3.3-1.1,7.4-1,12c14-0.2,31,0.7,42-2c6,0,12,0,18,0
		c7.1-1.7,20.2-3.7,28-4c7.4-0.3,33-1.8,36,0c0.7,0,1.3,0,2,0C1591.1,604.3,1576.8,604,1566.1,592z"/>
</g>
<g id="suede_front_and_back_2_" enable-background="new    ">
	<path id="SVGID_11_" d="M1581.1,336c0-6.7,0-13.3,0-20c-0.6-1.7-2.3-2.6-3-5c-1.7-0.3-3.3-0.7-5-1c0.1,6.2-0.3,12.4-3,16
		c-2.4,6.1-11.8,7.6-17,11c-14.1,9.4-32.6,14.6-49,22c-4.3,0.7-8.7,1.3-13,2c-28.5,12.4-67.2,18.5-100,27c-14.4,3.7-29.1,4.7-42,8
		c-4,0-8,0-12,0c-1.7,1.7-3.3,3.3-5,5c-4.3,0.7-8.7,1.3-13,2c-2.9,1-7.1,4-10,5c-6,1-12,2-18,3c-5.4,1.9-11.8,5.4-18,7
		c-9.1,2.4-17.3,0.6-24,5c-3.9,1.6-9.4,10-14,13c-24.4,15.8-40.1,27.6-57,51c-2.6,3.6-7.7,7.2-10,11c-4.9,8.1-6.4,16.9-10,26
		c-3.4,8.5-9.9,18.7-13,28c0,2.7,0,5.3,0,8c-1,2.7-4.9,5.3-6,8c-1,6-2,12-3,18c-2,5.4-7.2,10.8-9,16c0,5.3,0,10.7,0,16
		c-1.5,4.5-4.1,6.2-4,14c14.7,0,29.3,0,44,0c5.9,0.1,11.7,3.6,16,1c2.7-0.9,2.9-1.7,5-3c1.1-14.8,2.8-38.9,9-49c10.1-2,20.7-3,34-3
		c7.3,0,14.7,0,22,0c11.3-2.7,26.9-4,40-4c8,0,16,0,24,0c3.1-0.8,6-2,11-2c14.6-0.1,31.3-0.8,43-2c8.6-0.9,20.4,1.8,26-2
		c17.7,0,35.3,0,53,0c6.6,0,15.5-1.2,18,3c2.7,4.6-0.9,38.9-1,49c25.1-0.1,45-4.8,64-9c7.1-1.6,15.8,3.8,22,0c4.6-2.8,0.7-5,3-9
		c3.4-6,10.2-12.2,14-18c2.5-3.7,2.6-8.2,5-12C1609.7,518,1597.6,401.5,1581.1,336z M670.1,585c-1.7-1.5-2.4-4.5-4-6
		c-12.9-11.7-27.8-19.5-44-28c-2.2-1.1-4.9-5-7-6c-3-0.7-6-1.3-9-2c-3.2-1.6-7.4-6-11-7c-3.3,0.7-6.7,1.3-10,2c-2.3-0.5-4.3-4-6-5
		c-4-2.3-18.1-8-22-9c-5.3,0-10.7,0-16,0c-6.8-2-16.4-6.1-24-8c-5.3,0-10.7,0-16,0c-5.3-2-10.7-4-16-6c-9.6-2.5-16.6,0.4-26-2
		c-16.2-4.1-40.3-6-56-10c-5.3,0-10.7,0-16,0c-10.4-2.6-21.4-4-35-4c-7.7,0-15.3,0-23,0c-34.1-8.8-82.5-2.2-122-12
		c-6.7,0-13.3,0-20,0c-24.3-6.3-36.7-12.4-54-25c-8.9-6.4-19.1-16.1-23-27c-0.8-1-0.4-0.2-1-2c0.9-0.9,1.3-1.7,2-3
		c4.2-1.5,12.1,0.3,16-3c0.7,0,1.3,0,2,0c-1.4-4.3-16.8-8.3-26-8c-11.8,12.2-24.9,14.3-40,23c-12.7,7.4-36.3,33.6-43,47
		c-2,4-4.4,12.2-3,18c4.9,20.8,9.1,76.1,24,85c10.4,6.2,27.5,8.5,39,14c14.6,7,32.4,8,49,14c43.4,15.6,97,18.9,144,31
		c13.3,3.4,27.5,2.9,40,6c9.3,0,18.7,0,28,0c26.2,6.4,58.7,5.8,84,12c12.5,3.1,29.7-0.5,40,2c5,0,10,0,15,0c6.3,0,11,1,15,2
		c10,0,20,0,30,0c15.2,3.7,38.5,2,57,2c27.6,0,63,3.7,87-2c8,0,16,0,24,0c5.3-1.3,13-2,21-2c9,0,18.1,1.2,22-4c0.8-1,0.4-0.2,1-2
		c-18-17.4-30-40.5-47-59C684.3,594.6,676.6,590.8,670.1,585z M133.1,420c-0.7,0-1.3,0-2,0c1,0.8,0.2,0.4,2,1
		C133.1,420.7,133.1,420.3,133.1,420z"/>
</g>
<g id="Rectangel_2_" enable-background="new    ">
	<path id="SVGID_13_" d="M1467.1,571c-0.7-1-1.3-2-2-3c-22.7,0-45.3,0-68,0c-4.9,3.5-16,1.7-24,2c-10.4,0.4-23.9,2-37,2
		c-7.4,0-14.1,0.8-19,2c-8,0-16,0-24,0c-13.1,0-28.7,1.2-40,4c-5,0-10,0-15,0c-17.7,0-33.5-0.4-44,6c-3.7,17.4-5,36.5-9,52
		c-1,3.9-0.5,13.7,1,16c0.6,6.4,5.7,13.3,11,15c5.2,3.2,15.9,0,20-1c6.7,0,13.3,0,20,0c6.3-1.5,15.9-1.9,25-2
		c10.3-0.1,25.8-1.8,35-4c10.7-2.6,25.5,0.1,34-2c6,0,12,0,18,0c12.7,0,27.2-0.4,37-2c26.3-4.4,57.9,5.1,76-6
		c3.8-18.5,2.5-41.6,7-60C1470.5,584.3,1469.3,573.8,1467.1,571z"/>
</g>
<g id="shoe_top_2_" enable-background="new    ">
	<path id="SVGID_15_" d="M633.1,410c-4.8-1.2-15.2-2.8-20-4c-6,0-12,0-18,0c-23.1-5.6-54.6-2.3-78-8c-16.7,0-33.3,0-50,0
		c-1.6,0.5-4.4,3.5-6,4c-8,0-16,0-24,0c-21.9,0-42.9,1-60-4c-6.9-2-17.8-8.4-23-13c-6.2-5.5-10.1-15.5-19-18
		c-9.1,6.5-28.4,7.8-40,12c-42.6,15.5-91.7,25.2-136,39c-18.5,5.7-31.6,1-47,10c0.8,29.1,48.9,47.3,75,54c12.1,3.1,22.8-0.8,34,2
		c35.6,8.9,77.4,2.1,108,10c13.3,0,26.7,0,40,0c28.3,7,62.1,7,90,14c9.4,2.4,16.4-0.5,26,2c5.3,2,10.7,4,16,6c5.3,0,10.7,0,16,0
		c7.8,2,16.9,6.1,24,8c5.3,0,10.7,0,16,0c9.3,2.7,18.3,10.6,28,13c11.2,5.2,23.3-18.5,28-25c5.9-8.1,10.3-17.5,17-25
		c6.4-7.1,15-11.5,22-18c7.5-6.9,14.4-15.2,23-21c7.7-5.1,36.2-18.8,39-26c0.3,0,0.7,0,1,0c0-0.7,0-1.3,0-2c-24.2-0.3-49-4.9-70-10
		C641.1,410,637.1,410,633.1,410z M1109.1,544c-15.3-9.8-31.9-16.7-50-24c-2.1-0.9-4.1-3.9-6-5c-2-0.3-4-0.7-6-1
		c-6.1-2.5-13.8-8.3-20-11c-10.3-4.5-23.1-4.3-30-12c-14,0.3-20.1,16.1-26,25c-14,21.2-20.7,49.8-28,78c-2.1,8,0.1,13.7-2,22
		c-2.5,9.8-6.3,17.6-6,30c19.7-0.1,39.5,0,56-4c8.4-2,19.8-0.5,26-2c6.7,0,13.3,0,20,0c5.3-1.3,16.7-2.7,22-4
		c13.2-3.2,42.8,2.3,52-4c10.7,0.1,13.6-6.7,16-14c0-5.3,0-10.7,0-16c1.7-5,7-10.4,9-16c2.7-7.5,1.1-16.1,5-22
		C1137.4,553.5,1118.1,549.8,1109.1,544z"/>
</g>
<g id="sides_2_" enable-background="new    ">
	<path id="SVGID_17_" d="M1421.1,295c-9.8-3.9-19.2-12.1-30-15c-12.3-3.3-26.1,2-34,4c-20.9,5.2-43.7,5-64,10c-4,0-8,0-12,0
		c-6.7,1.7-30.6,4.7-40,2c-6.4-1.8-14-7.7-20-10c-4.6-1.7-5.7,1.3-10,0c-2.4-0.7-5.7-4.1-8-5c-3-0.7-6-1.3-9-2
		c-12.4-6.4-27.2-13.1-39-21c-5.7-3.8-10.5-10.2-16-14c-5-3.5-10.6-5-15-9c-4-3.6-6.1-9.3-10-13c-6.8-6.5-25-17.2-28-26
		c-0.8-1.2-0.8-1.7-1-4c-12.3-1.6-16.6-17.1-28-21c-6.1-3.7-16.8,2-21,4c-7.3,3.5-15.1,2.6-23,6c-8.3,3.6-17.7,9.9-26,13
		c-7.9,3-19.3,2.3-22,10c0,7.3,0,14.7,0,22c0,13.4,0.5,29.6-2,40c-3.2,13.6,2.3,24.7-5,33c-8.8,10-23.9,12.1-37,18
		c-31.9,14.4-66,31.4-100,43c-18,6.2-34.4-2.7-48-6c-4,0-8,0-12,0c-6.2-1.7-16.9-6.7-28-4c-4.8,1.2-10.1,4.7-14,6c-3.3,0-6.7,0-10,0
		c-1.6,0.5-4.4,3.5-6,4c-2.7,0-5.3,0-8,0c-5,1.6-10.5,6.7-15,9c-5.2,2.6-20.1,7.6-25,9c-12,3.4-25-3.7-32-6c-7.3-2.4-13.8,0.3-22-2
		c-5.2-1.5-22.1-8.8-28-8c-4.1,0.5-9.3,4.3-13,6c-0.3,2-0.7,4-1,6c-11.1,0.5-17,5.5-26,8c-7.4,2-13.9-0.3-22,2c-2.1,0.6-4.3,3.4-6,4
		c-2.7,0-5.3,0-8,0c-1.6,0.5-4.4,3.5-6,4c-7.3,0-14.7,0-22,0c-2.8,0.6-6.3,1.8-10,2c0,1.3,0,2.7,0,4c4.8,0,7.5-1.3,10-2
		c8.4-2.5,22.4,0.6,28,2c6.7,0,13.3,0,20,0c6.8,1.7,21.2,2.3,28,4c6.7,0,13.3,0,20,0c1.8,0.6,4.9,3.4,7,4c8,2.2,12-3.6,19-2
		c16.7,3.8,36.6,1.7,54,6c12.6,3.1,29.4,4.9,42,8c4.7,0,9.3,0,14,0c2.3,0.6,17,5.2,18,5c5.4-1.3,18-9.7,24-12c22.4-8.5,46-13,70-19
		c28.6-7.2,61.7-4.9,90-12c12.7,0,25.3,0,38,0c2.6-0.7,5.7-3.4,8-4c5.6-1.3,9.3,3.6,16,2c10.1-2.4,25.9-2,39-2c5,0,10,0,15,0
		c13.8-3.4,35.6,1.6,50-2c6.8-1.7,19.1,0.2,28-2c32.3-8,72.3-4.1,104-12c11-2.7,19.3,0.7,30-2c17.1-4.3,37.5-5.9,54-10c4,0,8,0,12,0
		c26-6.7,58.1-11.2,84-18c2.7,0,5.3,0,8,0c8.9-2.3,21.5-5.9,30-9c4.7-0.7,9.3-1.3,14-2c7-2.5,15.3-6.6,24-7
		C1454.8,304.3,1429.4,298.3,1421.1,295z M1225.1,426c-6.2,4.4-15.2,1.8-24,4c-13.9,3.4-30.1,4.5-44,8c-9.7,2.4-16.6-0.3-26,2
		c-8.2,2-19.8,4-28,6c-4,0-8,0-12,0c-25.6,6.4-52.2,12-74,23c-7.9,4-15.2,12.5-22,18c1.1,9.4,30.8,16.4,40,20
		c7.9,3.1,16.6,9.9,24,13c16.1,6.7,29.6,13.5,44,21c5.4,2.8,10.9,3.7,16,7c3.7,2.4,8.2,6.8,12,9c4,2.3,8.4,2.5,12,5
		c2.7-1.9,4.5-17.5,6-22c1.8-5.2,7-10.8,9-16c3.6-9.2,5.4-16.7,10-25c12.2-22.3,35.1-39.9,54-56c5.8-4.9,13.4-7.1,19-12
		c0.7-1.4,0.3-1.3-1-3C1237.1,425.6,1230.8,425.8,1225.1,426z"/>
</g>
<g id="heel_thingie_2_" enable-background="new    ">
	<path id="SVGID_19_" d="M1573.1,321c-0.2-14.5-3.3-16.7-6-27c0-2.7,0-5.3,0-8c-1.9-7.2-4.2-17.2-6-24c-2.9-10.8-1.2-21.5-5-32
		c-2.1-6-13.8-22.3-9-30c0,0-0.2-3.9-1-2c-0.3,0.3-0.7,0.7-1,1c4-14-3.6-40.1-9-55c-2.7-7.3-1.7-12.4-9-15c-1.4-1-3.3-1-6-1
		c-8.1,6-17.8,7.3-23,16c-5,8.4-8.3,22.2-11,32c0,2,0,4,0,6c-1.1,3.1-5.7,5.4-7,8c-3.5,7.1,2.3,13.6,1,20c-1.6,7.8-8.1,19.5-13,25
		c-11.1,12.5-29.7,23.2-47,29c-4,0.7-8,1.3-12,2c-3.8,1.5-9.2,4.8-14,6c-3.1,0.8-6-0.2-8,1c-2.3,0.7-2.2,1-4,2
		c0.1,0.1,26.6,7.8,31,10c14.5,7.2,29.2,14.5,47,19c12.9,3.3,25.9-3.6,33-7c3.7-0.7,7.3-1.3,11-2c11.5-5,24.9-12.2,38-15
		c4.8,4.9,11.6,8.8,15,15c3.7,6.8,7.8,20.3,13,25c0,0.3,0,0.7,0,1C1571.8,321,1572.4,321,1573.1,321z"/>
</g>
<g id="Puma_swoosh_2_" enable-background="new    ">
	<path id="SVGID_21_" d="M1566.1,311c-5.7-11.3-11.8-27.5-25-31c-11.6,8.7-33.5,10.7-48,17c-2.3,1-5.3,4.2-8,5
		c-5.8,1.8-14.5-0.3-20,2c-2.6,1.1-3.3,5.7-6,7c-12.7,5.8-26.1,5.1-40,10c-48.4,17.1-107.7,19.8-160,33c-3.3,0-6.7,0-10,0
		c-20.6,5.1-47.1,4.8-68,10c-5.3,0-10.7,0-16,0c-28.9,7.1-66.5,2.7-96,10c-7.7,0-15.3,0-23,0c-16.8,0-27.9,2-44,2c-11,0-22,0-33,0
		c-2.9,0.7-7,3.2-12,2c-2.1-0.5-4.6-2.7-8-2c-2.7,0.6-5.6,3.3-8,4c-12.7,0-25.3,0-38,0c-28.4,6.9-61.3,4.9-90,12
		c-19.1,4.7-39,10.2-56,16c-7.3,2.5-13.2,2-20,5c-35.9,16.1-67.8,37.1-95,62c-11.8,10.8-22.9,25.6-32,39c-4,5.9-6.2,13.9-12,18
		c0.5,11.9,8,8.9,16,13c9.3,4.8,20.1,11.1,29,17c21,14,40.5,32.4,57,51c7,7.9,10.9,18.2,18,26c6.8,7.5,15.3,14.5,21,23
		c22.5-0.2,48.4-1.2,68-6c10,0,20,0,30,0c4.8-1.2,15.2-2.8,20-4c9.3,0,18.7,0,28,0c13.7-3.3,36.6-2.6,49-8
		c13.6-66.8,21.3-123,64-161c22.7-20.2,58.9-28.5,93-37c4,0,8,0,12,0c8.2-2,19.8-4,28-6c10.2-2.6,21.2-1.8,30-4c4,0,8,0,12,0
		c18.7-4.7,43.5-7.3,62-12c3.3,0,6.7,0,10,0c24.8-6.3,51.6-12.8,74-21c4.3-0.7,8.7-1.3,13-2c1.7-1.7,3.3-3.3,5-5c4,0,8,0,12,0
		c10-2.5,23.8-5.4,34-8c7-1.8,11.4-0.2,18-2c5.1-1.4,11.6-4.7,16-6c4,0,8,0,12,0c6.1-1.5,14-4.4,20-6s10.2,0,16-2
		c18.3-6.3,40-13.9,58-21c11.8-4.6,43-14.9,47-25C1571.7,322.4,1567.8,314.4,1566.1,311z"/>
</g>
<g id="side_branding_2_" enable-background="new    ">
	<path id="SVGID_23_" d="M965.1,204c-16.5,1.6-31,11.8-44,17c-16.7,6.7-32.1,10.8-48,18c-4,1.8-7.8,6.3-12,8
		c-41.2,16.7-82.4,32.8-121,52c-4.9,2.5-9.8,1.7-15,4c-11.8,5.2-25.3,12.4-37,18c-3.7,0.7-7.3,1.3-11,2c-5.6,2.5-12.2,7.6-18,10
		c-5.1,2.1-9,1.5-14,4c-5.2,2.7-12.2,8.9-18,11c-3.3,0.3-6.7,0.7-10,1c-5.4,2.4-11.6,7.6-17,10c-2.6,1.1-12.8,1.6-16,2
		c-0.4,2.1-0.2,1.9-1,3c3.8,5.8,21.3,3.8,30,6c11,2.8,26.4,12.1,42,8c16.9-4.5,28.9-14.1,47-18c12.2-2.7,33.3-15.2,51-10
		c2.4,0.7,5.3,3.3,8,4c5.3,0.3,10.7,0.7,16,1c8.6,3.1,21.8,10.6,36,7c11.7-3,23.2-8.3,33-13c3.7-0.7,7.3-1.3,11-2
		c9.2-4,18.5-11.3,28-15c5.6-2.2,15-2.5,20-5c8.5-4.2,18.8-11.4,28-15c6-2.4,10.4-2,16-5c4.3-4.3,8.7-8.7,13-13
		C964.2,265.3,965.3,235.8,965.1,204z"/>
</g>
<g id="Holes_2_" enable-background="new    ">
	<path id="SVGID_25_" d="M1054.1,167c-3.3-7.5-12.3-8.8-18-14c-4.2-3.8-6-10.9-11-14c-17.7-10.9-39.9-24.7-70-17
		c-4.3,1.1-9.1,4.1-13,6c1.2,9.1,10.4,13.5,13,26c-3.9,3.6-8.3,7.3-14,9c-11.1,4.5-31.2-18.9-40-14c-5.3,0.6-9.1,3.9-12,7
		c-5.5-0.5-9.6-5.3-16-3c-3.1,1.1-5.8,3.9-10,5c1.3,6.9,6.8,9.1,10,14c2,3,1.9,7.2,4,10c-0.7,9-7,9.5-12,14
		c-13.9-1.2-30.8-15.6-40-23c-10.5,3.4-20.2,9.1-31,13c-0.6,1.3-1.2,3-2,4c1.7,4.6,6,7.1,8,11c1.8,3.6,0.9,8,3,11
		c-0.1,4.6-0.7,6.2-2,9c-8.1,3.4-12.5,7.3-24,7c-9.8-10.1-18.3-21.8-28-32c-2.5,1.5-1.5,3.7-3,6c-2.6,6.6-30.6,14.9-38,19
		c2.2,9.6,14.7,12.3,15,29c-1.4,1.3-1.7,3.7-3,5c-2.7,2.7-7.8,2.8-11,5c-11.8,0-31.4-14.2-36-21c-13.9-0.6-28.4,8.5-39,15
		c0.6,5.4,7.8,14.3,11,18c0.4,21.1-8.3,11.2-16,22c-26.1-1-23.5-29.4-50-30c0.1,3.5,0.3,8-1,10c-1.9,5.1-13.5,9.8-19,11
		c1.6,12.8,12.2,9.2,12,31c-1.5,1.4-2.9,3.2-4,5c-6.2,1.1-12.3,1.5-16,5c-15.5-1.2-25-13.2-32-23c-13.9,0.7-27,10.2-37,16
		c1.3,7.7,7.1,10.5,9,17c2.1,7.4-1.5,14.1-2,20c-5.9,0.3-10.3,3.5-16,2c-14.8-3.8-23-15-30-27c-2-0.3-4-0.7-6-1v-10
		c-9.8,1.1-20.5,10.8-29,15c-21.7,10.8-45.2,15.4-68,25c-0.5,2.6-1,4.4-1,8c10.6,10.4,19.4,22.7,34,29c7.5,3.3,16.1,0.9,22,5h62v-1
		c-2.2-0.6-2.6-0.7-4-2c-0.8-1-0.4-0.2-1-2c7.5-2.9,16.7-4.9,25-6c3.1-0.4,12.7,3.5,17,1c0.9-0.5,1.5-3.4,3-4h8
		c8.4-2.2,18.2-3.3,28-6c11.7-3.2,26.7-8.8,38-13c4.3-0.7,8.7-1.3,13-2c1.7-2,3.3-4,5-6c4-0.7,8-1.3,12-2c5.4-2.4,11.6-7.5,17-10
		c3-0.3,6-0.7,9-1c6.2-2.2,13.3-8,19-11c3-0.7,6-1.3,9-2c7.2-3.2,15.8-8.5,23-12c3.7-0.7,7.3-1.3,11-2c10.1-4.4,21.6-11.8,32-16
		c14.8-6,27.8-9.5,42-16c4.9-2.2,10.9-7,16-9c6.8-2.6,11.6-2.1,18-5c6.9-3.2,14.8-9.2,22-12c11-4.3,19.5-7.4,29-12c3-0.7,6-1.3,9-2
		c11-5,22.8-13.6,34-18c9.2-3.6,17-3.9,26-8c6.4-2.9,13.4-8.5,20-11c7-2.7,13.5-1.7,20-5c4.8-2.5,11.8-7.4,17-10
		c4.3-2.1,8.2-1.2,13-3c8.6-3.3,18.5-9,27-13c5.7-1.3,11.3-2.7,17-4c7.2-2.7,13.6-7.1,24-7C1054.7,167.9,1054.9,168.1,1054.1,167z"
		/>
</g>
<g id="Tongue_2_" enable-background="new    ">
	<path id="SVGID_27_" d="M1164.1,97c-0.7-3.7-1.3-7.3-2-11c-1.1-3-4.7-6.4-6-9c-3.3-6.3-2.7-12.6-6-19c-7.5-14.7-16.6-30.8-25-45
		c-6.5,0.6-11.1,5.8-14,10c-6.5-0.7-23.5-18.2-28-23c-19.5,1.8-30.2,16.2-41,27c-15.4,15.4-29.4,28.6-49,40c-6.8,4-26.4,21-38,13
		c-3.3,2.1-3.4,7-7,9c-4.2,2.3-8.3,1.1-13,3c-3.1,1.2-6.6,4.8-10,6c-2.7,0.3-5.3,0.7-8,1c-4.9,2.4-10.3,8-15,11
		c2.9,4.4,24.9,14.7,31,16c5.5,2.3,19-8.6,25-11c4.9-1.9,12.7,0.6,17,0c2.8-0.4,12.2-5.6,17-4c0.5,0.2,3.9,2.7,5,3h10
		c4.1,1.5,6.1,6.3,9,9c4.5,4.1,10.9,5.4,16,9c5.7,5.7,11.3,11.3,17,17c4.5,3.3,8.2,5,13,8c1.9,1.2,2.4,4.7,4,6
		c3.4,2.6,10.3,3.3,14,6c6.1,4.5,8.8,14.4,14,20c8.2,9,20,16.9,28,26c2.2,2.4,1.9,6.4,4,9c2.4,3,8.4,3,12,5c4.2,2.3,8.9,7.4,12,11
		c2.3-0.2,2.8-0.2,4-1c7.4-3.1,21-23.8,21-35h3C1188.6,162.3,1178.8,127.5,1164.1,97z M837.1,135c-1,1-2,2-3,3c0.4,5.5,2.5,7.7,7,9
		c1.7,1.1,4.9,1.1,8,1c0.1-4.7,1-13-1-16C848.1,132,839.3,133.5,837.1,135z M811.1,166c-0.1,5.5,0.3,8.9,2,12c1.7-0.6,1-0.2,2-1
		c5-0.5,5.8-2.1,9-4c-0.7-3.7-1.5-3.5-3-6C817.8,166.7,814.4,166.3,811.1,166z M775.1,176v2h3C776.6,175.5,778.3,176.8,775.1,176z
		 M809.1,180h3c-0.3-1-0.7-2-1-3C808.6,178.5,809.9,176.8,809.1,180z M687.1,201c-4.8,0.6-4.4,1.8-8,3c2,11.5,17.9,16.5,32,16
		c0.1-8,2.5-16.3,7-20v-2c-3.4,1.2-8.4,3.3-11,4C701.1,203.6,691.2,199.1,687.1,201z M624.1,229c-2.6,2.5-5.2-0.2-9,2
		c-6.1,0.6-13.3,7-15,12h-1c1.8,4.4,6.4,4.5,10,7c17.8,0.9,18-8.9,17-19C624.8,228.6,626.6,230.3,624.1,229z M661.1,231
		c-1.4-1-3.3-1-6-1c-0.2,3.4-0.5,6-2,8c0.5,3.6-0.5,2.5,2,4c2.9,1.4,8.8-2.3,12-4c-0.4-2.1-0.2-1.9-1-3
		C664.9,232.4,664.1,231.9,661.1,231z M539.1,278c6.6,0.2,8.6-1.2,10-6c1.5-1.9,1.9-4.7,2-8c-6.5,1.1-8.4,5.1-13,8
		C538.4,274,538.8,276,539.1,278z M579.1,276c5.1-1.1,9.9-2.8,13-6c0.8-1,0.4-0.2,1-2c-4.3-2.2-7.1-4-14-4V276z M472.1,300
		c-2.8,5.4,3.7,15.5,9,17c1.2,0.8,1.7,0.8,4,1c0.3-12.5,5.9-14.6,6-27c-2.8,0.3-8,0.7-10,2C475.8,293.4,473.4,295.8,472.1,300z"/>
</g>
</svg>
