<?xml version="1.0" encoding="utf-8"?>
<!-- Generator: Adobe Illustrator 24.3.0, SVG Export Plug-In . SVG Version: 6.00 Build 0)  -->
<svg version="1.1" id="Layer_2_2_" xmlns="http://www.w3.org/2000/svg" xmlns:xlink="http://www.w3.org/1999/xlink" x="0px" y="0px"
	 viewBox="0 0 288 288" enable-background="new 0 0 288 288" xml:space="preserve">
<path id="headband" fill-rule="evenodd" clip-rule="evenodd" fill="none" d="M228.72,148.32c-1.04-0.16-2.08-0.32-3.12-0.48
	c-0.08,0.4-0.16,0.8-0.24,1.2c-0.08,0-0.16,0-0.24,0c0-0.4,0-0.8,0-1.2c-0.08,0-0.16,0-0.24,0c0,0.16,0,0.32,0,0.48
	c-0.4-0.08-0.8-0.16-1.2-0.24c0-0.08,0-0.16,0-0.24c-0.48,0.08-0.96,0.16-1.44,0.24c0-0.24,0-0.48,0-0.72c-0.08,0-0.16,0-0.24,0
	c0-0.08,0-0.16,0-0.24c-0.24,0-0.48,0-0.72,0c-0.08-1.04-0.16-2.08-0.24-3.12c0.514-1.907,0.538-9.628,0-11.52c0-0.88,0-1.76,0-2.64
	c-0.08,0-0.16,0-0.24,0c0-0.64,0-1.28,0-1.92c-0.08,0-0.16,0-0.24,0c-0.16-1.52-0.32-3.04-0.48-4.56c-0.08,0-0.16,0-0.24,0
	c0-0.4,0-0.8,0-1.2c-0.08,0-0.16,0-0.24,0c0-0.32,0-0.64,0-0.96c-0.08,0-0.16,0-0.24,0c0-0.4,0-0.8,0-1.2c-0.08,0-0.16,0-0.24,0
	c0-0.32,0-0.64,0-0.96c-0.08,0-0.16,0-0.24,0c0-0.32,0-0.64,0-0.96c-1.04-3.12-2.08-6.24-3.12-9.36c-0.08,0-0.16,0-0.24,0
	c0-0.16,0-0.32,0-0.48c-0.08,0-0.16,0-0.24,0c0-0.24,0-0.48,0-0.72c-0.08,0-0.16,0-0.24,0c-0.08-0.32-0.16-0.64-0.24-0.96
	c-0.08,0-0.16,0-0.24,0c0-0.16,0-0.32,0-0.48c-0.08,0-0.16,0-0.24,0c0-0.24,0-0.48,0-0.72c-0.08,0-0.16,0-0.24,0
	c-0.16-0.48-0.32-0.96-0.48-1.44c-0.08,0-0.16,0-0.24,0c0-0.16,0-0.32,0-0.48c-0.08,0-0.16,0-0.24,0c0-0.16,0-0.32,0-0.48
	c-0.08,0-0.16,0-0.24,0c0-0.16,0-0.32,0-0.48c-0.08,0-0.16,0-0.24,0c0-0.16,0-0.32,0-0.48l-0.48-0.48c0-0.16,0-0.32,0-0.48
	c-0.16-0.08-0.32-0.16-0.48-0.24c0-0.16,0-0.32,0-0.48c-0.08,0-0.16,0-0.24,0c0-0.16,0-0.32,0-0.48l-0.48-0.48c0-0.16,0-0.32,0-0.48
	c-0.16-0.08-0.32-0.16-0.48-0.24c0-0.16,0-0.32,0-0.48c-0.08,0-0.16,0-0.24,0c0-0.16,0-0.32,0-0.48c-0.08,0-0.16,0-0.24,0
	c-0.08-0.24-0.16-0.48-0.24-0.72c-0.16-0.08-0.32-0.16-0.48-0.24c-0.08-0.32-0.16-0.64-0.24-0.96c-0.16-0.08-0.32-0.16-0.48-0.24
	c0-0.16,0-0.32,0-0.48c-0.08,0-0.16,0-0.24,0c-0.08-0.24-0.16-0.48-0.24-0.72c-0.16-0.08-0.32-0.16-0.48-0.24c0-0.16,0-0.32,0-0.48
	c-0.24-0.16-0.48-0.32-0.72-0.48c0-0.16,0-0.32,0-0.48c-0.16-0.08-0.32-0.16-0.48-0.24c0-0.16,0-0.32,0-0.48
	c-0.24-0.16-0.48-0.32-0.72-0.48c0-0.16,0-0.32,0-0.48c-0.24-0.16-0.48-0.32-0.72-0.48c0-0.16,0-0.32,0-0.48
	c-0.32-0.24-0.64-0.48-0.96-0.72c0-0.16,0-0.32,0-0.48c-0.4-0.32-0.8-0.64-1.2-0.96c0-0.16,0-0.32,0-0.48
	c-0.56-0.48-1.12-0.96-1.68-1.44c0-0.16,0-0.32,0-0.48c-0.48-0.4-0.96-0.8-1.44-1.2c-1.28-1.36-2.56-2.72-3.84-4.08
	c-0.16,0-0.32,0-0.48,0c-0.48-0.56-0.96-1.12-1.44-1.68c-0.16,0-0.32,0-0.48,0c-0.24-0.32-0.48-0.64-0.72-0.96
	c-0.16,0-0.32,0-0.48,0c-0.24-0.32-0.48-0.64-0.72-0.96c-0.16,0-0.32,0-0.48,0c-0.24-0.32-0.48-0.64-0.72-0.96
	c-0.16,0-0.32,0-0.48,0c-0.08-0.16-0.16-0.32-0.24-0.48c-0.16,0-0.32,0-0.48,0c-0.16-0.24-0.32-0.48-0.48-0.72
	c-0.16,0-0.32,0-0.48,0c-0.08-0.16-0.16-0.32-0.24-0.48c-0.16,0-0.32,0-0.48,0c-0.08-0.16-0.16-0.32-0.24-0.48
	c-0.16,0-0.32,0-0.48,0c-0.08-0.16-0.16-0.32-0.24-0.48c-0.16,0-0.32,0-0.48,0c-0.08-0.16-0.16-0.32-0.24-0.48
	c-0.16,0-0.32,0-0.48,0c-0.08-0.16-0.16-0.32-0.24-0.48c-0.16,0-0.32,0-0.48,0c-0.08-0.16-0.16-0.32-0.24-0.48
	c-0.16,0-0.32,0-0.48,0c0-0.08,0-0.16,0-0.24c-0.16,0-0.32,0-0.48,0c-0.08-0.16-0.16-0.32-0.24-0.48c-0.48-0.16-0.96-0.32-1.44-0.48
	c-0.08-0.16-0.16-0.32-0.24-0.48c-0.16,0-0.32,0-0.48,0l-0.48-0.48c-0.16,0-0.32,0-0.48,0c0-0.08,0-0.16,0-0.24
	c-0.16,0-0.32,0-0.48,0c0-0.08,0-0.16,0-0.24c-0.16,0-0.32,0-0.48,0c0-0.08,0-0.16,0-0.24c-0.16,0-0.32,0-0.48,0
	c0-0.08,0-0.16,0-0.24c-0.16,0-0.32,0-0.48,0c0-0.08,0-0.16,0-0.24c-0.16,0-0.32,0-0.48,0c0-0.08,0-0.16,0-0.24
	c-0.16,0-0.32,0-0.48,0c0-0.08,0-0.16,0-0.24c-0.16,0-0.32,0-0.48,0c0-0.08,0-0.16,0-0.24c-0.32-0.08-0.64-0.16-0.96-0.24
	c0-0.08,0-0.16,0-0.24c-0.16,0-0.32,0-0.48,0c0-0.08,0-0.16,0-0.24c-0.24,0-0.48,0-0.72,0c0-0.08,0-0.16,0-0.24
	c-0.32-0.08-0.64-0.16-0.96-0.24c0-0.08,0-0.16,0-0.24c-3.28-1.12-6.56-2.24-9.84-3.36c-0.32,0-0.64,0-0.96,0c0-0.08,0-0.16,0-0.24
	c-0.32,0-0.64,0-0.96,0c0-0.08,0-0.16,0-0.24c-0.4,0-0.8,0-1.2,0c0-0.08,0-0.16,0-0.24c-0.32,0-0.64,0-0.96,0c0-0.08,0-0.16,0-0.24
	c-0.4,0-0.8,0-1.2,0c0-0.08,0-0.16,0-0.24c-0.4,0-0.8,0-1.2,0c0-0.08,0-0.16,0-0.24c-0.48,0-0.96,0-1.44,0c0-0.08,0-0.16,0-0.24
	c-0.56,0-1.12,0-1.68,0c0-0.08,0-0.16,0-0.24c-0.64,0-1.28,0-1.92,0c0-0.08,0-0.16,0-0.24c-0.88,0-1.76,0-2.64,0
	c0-0.08,0-0.16,0-0.24c-1.44,0-2.88,0-4.32,0c0-0.08,0-0.16,0-0.24c-1.12,0-2.24,0-3.36,0c0,0.08,0,0.16,0,0.24c-0.8,0-1.6,0-2.4,0
	c-1.614,0.002-3.295,0.119-4.56,0.48c-0.64,0-1.28,0-1.92,0c0,0.08,0,0.16,0,0.24c-0.56,0-1.12,0-1.68,0
	c-1.13,0.333-2.746,0.62-3.84,0.96c-0.4,0-0.8,0-1.2,0c-3.04,0.88-6.08,1.76-9.12,2.64c0,0.08,0,0.16,0,0.24c-0.16,0-0.32,0-0.48,0
	c0,0.08,0,0.16,0,0.24c-0.48,0.08-0.96,0.16-1.44,0.24c0,0.08,0,0.16,0,0.24c-0.4,0.08-0.8,0.16-1.2,0.24c0,0.08,0,0.16,0,0.24
	c-0.16,0-0.32,0-0.48,0c0,0.08,0,0.16,0,0.24c-0.24,0-0.48,0-0.72,0c0,0.08,0,0.16,0,0.24c-0.32,0.08-0.64,0.16-0.96,0.24
	c0,0.08,0,0.16,0,0.24c-0.16,0-0.32,0-0.48,0c0,0.08,0,0.16,0,0.24c-0.24,0-0.48,0-0.72,0c0,0.08,0,0.16,0,0.24
	c-0.48,0.16-0.96,0.32-1.44,0.48c0,0.08,0,0.16,0,0.24c-0.16,0-0.32,0-0.48,0c0,0.08,0,0.16,0,0.24c-0.16,0-0.32,0-0.48,0
	c0,0.08,0,0.16,0,0.24c-0.48,0.16-0.96,0.32-1.44,0.48c-0.08,0.16-0.16,0.32-0.24,0.48c-0.16,0-0.32,0-0.48,0c0,0.08,0,0.16,0,0.24
	c-0.16,0-0.32,0-0.48,0l-0.48,0.48c-0.16,0-0.32,0-0.48,0c-0.08,0.16-0.16,0.32-0.24,0.48c-0.32,0.08-0.64,0.16-0.96,0.24
	c-0.08,0.16-0.16,0.32-0.24,0.48c-0.16,0-0.32,0-0.48,0c0,0.08,0,0.16,0,0.24c-0.16,0-0.32,0-0.48,0c-0.08,0.16-0.16,0.32-0.24,0.48
	c-0.16,0-0.32,0-0.48,0c-0.08,0.16-0.16,0.32-0.24,0.48c-0.16,0-0.32,0-0.48,0c-0.08,0.16-0.16,0.32-0.24,0.48
	c-0.16,0-0.32,0-0.48,0c-0.08,0.16-0.16,0.32-0.24,0.48c-0.16,0-0.32,0-0.48,0c-0.08,0.16-0.16,0.32-0.24,0.48
	c-0.16,0-0.32,0-0.48,0c-0.08,0.16-0.16,0.32-0.24,0.48c-0.16,0-0.32,0-0.48,0c-0.16,0.24-0.32,0.48-0.48,0.72
	c-0.16,0-0.32,0-0.48,0c-0.16,0.24-0.32,0.48-0.48,0.72c-0.16,0-0.32,0-0.48,0c-0.16,0.24-0.32,0.48-0.48,0.72
	c-0.16,0-0.32,0-0.48,0c-0.08,0.16-0.16,0.32-0.24,0.48c-0.24,0.16-0.48,0.32-0.72,0.48c0,0.08,0,0.16,0,0.24c-0.16,0-0.32,0-0.48,0
	c-0.32,0.4-0.64,0.8-0.96,1.2c-0.16,0-0.32,0-0.48,0c-0.8,0.88-1.6,1.76-2.4,2.64c-0.16,0-0.32,0-0.48,0
	c-0.16,0.24-0.32,0.48-0.48,0.72c-0.56,0.48-1.12,0.96-1.68,1.44c0,0.16,0,0.32,0,0.48c-0.8,0.72-1.6,1.44-2.4,2.16
	c0,0.16,0,0.32,0,0.48c-0.16,0.08-0.32,0.16-0.48,0.24c0,0.08,0,0.16,0,0.24c-0.32,0.24-0.64,0.48-0.96,0.72c0,0.16,0,0.32,0,0.48
	c-0.32,0.24-0.64,0.48-0.96,0.72c0,0.16,0,0.32,0,0.48c-0.24,0.16-0.48,0.32-0.72,0.48c0,0.16,0,0.32,0,0.48
	c-0.24,0.16-0.48,0.32-0.72,0.48c0,0.16,0,0.32,0,0.48c-0.24,0.16-0.48,0.32-0.72,0.48c0,0.16,0,0.32,0,0.48
	c-0.16,0.08-0.32,0.16-0.48,0.24c0,0.16,0,0.32,0,0.48c-0.24,0.16-0.48,0.32-0.72,0.48c0,0.16,0,0.32,0,0.48
	c-0.16,0.08-0.32,0.16-0.48,0.24c0,0.16,0,0.32,0,0.48c-0.16,0.08-0.32,0.16-0.48,0.24c-0.08,0.32-0.16,0.64-0.24,0.96
	c-0.16,0.08-0.32,0.16-0.48,0.24c-0.08,0.24-0.16,0.48-0.24,0.72c-0.08,0-0.16,0-0.24,0c-0.16,0.48-0.32,0.96-0.48,1.44
	c-0.16,0.08-0.32,0.16-0.48,0.24c-0.16,0.48-0.32,0.96-0.48,1.44c-0.16,0.08-0.32,0.16-0.48,0.24c0,0.16,0,0.32,0,0.48l-0.48,0.48
	c0,0.16,0,0.32,0,0.48c-0.08,0-0.16,0-0.24,0c0,0.16,0,0.32,0,0.48c-0.08,0-0.16,0-0.24,0c0,0.16,0,0.32,0,0.48
	c-0.08,0-0.16,0-0.24,0c0,0.16,0,0.32,0,0.48c-0.08,0-0.16,0-0.24,0c0,0.16,0,0.32,0,0.48c-0.08,0-0.16,0-0.24,0
	c-0.16,0.48-0.32,0.96-0.48,1.44c-0.08,0-0.16,0-0.24,0c0,0.24,0,0.48,0,0.72c-0.08,0-0.16,0-0.24,0c-0.08,0.32-0.16,0.64-0.24,0.96
	c-0.08,0-0.16,0-0.24,0c0,0.24,0,0.48,0,0.72c-0.08,0-0.16,0-0.24,0c-0.08,0.32-0.16,0.64-0.24,0.96c-0.08,0-0.16,0-0.24,0
	c0,0.24,0,0.48,0,0.72c-0.08,0-0.16,0-0.24,0c0,0.16,0,0.32,0,0.48c-0.08,0-0.16,0-0.24,0c-0.16,0.72-0.32,1.44-0.48,2.16
	c-0.08,0-0.16,0-0.24,0c0,0.16,0,0.32,0,0.48c-0.08,0-0.16,0-0.24,0c-0.16,0.8-0.32,1.6-0.48,2.4c-0.08,0-0.16,0-0.24,0
	c0,0.24,0,0.48,0,0.72c-0.08,0-0.16,0-0.24,0c0,0.24,0,0.48,0,0.72c-0.08,0-0.16,0-0.24,0c0,0.32,0,0.64,0,0.96
	c-0.08,0-0.16,0-0.24,0c0,0.32,0,0.64,0,0.96c-0.08,0-0.16,0-0.24,0c0,0.32,0,0.64,0,0.96c-0.08,0-0.16,0-0.24,0
	c0,0.32,0,0.64,0,0.96c-0.08,0-0.16,0-0.24,0c0,0.32,0,0.64,0,0.96c-0.08,0-0.16,0-0.24,0c-0.16,1.28-0.32,2.56-0.48,3.84
	c-1.066,3.584-1.2,8.438-1.2,12.96c0,3.13,0.495,6.197,0,8.88c-0.4,0-0.8,0-1.2,0c0,0.32,0,0.64,0,0.96c-0.08,0-0.16,0-0.24,0
	c0-0.08,0-0.16,0-0.24c-0.501-0.297-1.913,0.089-2.16,0.24c-0.16,0.24-0.32,0.48-0.48,0.72l-0.24-0.24c-0.08,0-0.16,0-0.24,0
	c0-0.24,0-0.48,0-0.72c-1.28,0.24-2.56,0.48-3.84,0.72c0.027,0.758,0.469,0.45-0.24,0.72c0-0.16,0-0.32,0-0.48
	c-1.734,0.145-3.603,0.738-5.04,1.2c-0.4,0-0.8,0-1.2,0c0,0.08,0,0.16,0,0.24c-0.16,0-0.32,0-0.48,0c0,0.08,0,0.16,0,0.24
	c-0.08,0-0.16,0-0.24,0c0-0.08,0-0.16,0-0.24c-1.716-0.522-1.382-3.497-1.92-5.28c-0.08,0-0.16,0-0.24,0c0-0.48,0-0.96,0-1.44
	c-0.974-3.33-1.15-7.589-1.2-11.76c-0.02-1.687-0.49-3.362,0-5.04c0.08-2.56,0.16-5.12,0.24-7.68c0.08,0,0.16,0,0.24,0
	c0-0.72,0-1.44,0-2.16c0.08,0,0.16,0,0.24,0c0-0.56,0-1.12,0-1.68c0.08,0,0.16,0,0.24,0c0.08-0.96,0.16-1.92,0.24-2.88
	c0.08,0,0.16,0,0.24,0c0-0.48,0-0.96,0-1.44c0.08,0,0.16,0,0.24,0c0-0.4,0-0.8,0-1.2c0.08,0,0.16,0,0.24,0
	c0.08-0.72,0.16-1.44,0.24-2.16c0.08,0,0.16,0,0.24,0c0-0.32,0-0.64,0-0.96c0.08,0,0.16,0,0.24,0c0-0.32,0-0.64,0-0.96
	c0.08,0,0.16,0,0.24,0c0.08-0.64,0.16-1.28,0.24-1.92c1.04-3.12,2.08-6.24,3.12-9.36c0.08,0,0.16,0,0.24,0
	c0.08-0.32,0.16-0.64,0.24-0.96c0.08,0,0.16,0,0.24,0c0-0.24,0-0.48,0-0.72c0.08,0,0.16,0,0.24,0c0-0.16,0-0.32,0-0.48
	c0.08,0,0.16,0,0.24,0c0-0.24,0-0.48,0-0.72c0.08,0,0.16,0,0.24,0c0.08-0.32,0.16-0.64,0.24-0.96c0.08,0,0.16,0,0.24,0
	c0.08-0.4,0.16-0.8,0.24-1.2c0.08,0,0.16,0,0.24,0c0-0.16,0-0.32,0-0.48c0.08,0,0.16,0,0.24,0c0-0.16,0-0.32,0-0.48
	c0.08,0,0.16,0,0.24,0c0-0.16,0-0.32,0-0.48c0.08,0,0.16,0,0.24,0c0-0.16,0-0.32,0-0.48c0.08,0,0.16,0,0.24,0c0-0.16,0-0.32,0-0.48
	c0.08,0,0.16,0,0.24,0c0-0.16,0-0.32,0-0.48c0.08,0,0.16,0,0.24,0c0-0.16,0-0.32,0-0.48c0.08,0,0.16,0,0.24,0c0-0.16,0-0.32,0-0.48
	c0.08,0,0.16,0,0.24,0c0-0.16,0-0.32,0-0.48l0.48-0.48c0-0.16,0-0.32,0-0.48c0.16-0.08,0.32-0.16,0.48-0.24c0-0.16,0-0.32,0-0.48
	c0.08,0,0.16,0,0.24,0c0-0.16,0-0.32,0-0.48l0.48-0.48c0-0.16,0-0.32,0-0.48c0.16-0.08,0.32-0.16,0.48-0.24c0-0.16,0-0.32,0-0.48
	c0.08,0,0.16,0,0.24,0c0-0.16,0-0.32,0-0.48c0.16-0.08,0.32-0.16,0.48-0.24c0.08-0.32,0.16-0.64,0.24-0.96
	c0.16-0.08,0.32-0.16,0.48-0.24c0-0.16,0-0.32,0-0.48c0.08,0,0.16,0,0.24,0c0-0.16,0-0.32,0-0.48c0.08,0,0.16,0,0.24,0
	c0.08-0.24,0.16-0.48,0.24-0.72c0.16-0.08,0.32-0.16,0.48-0.24c0-0.16,0-0.32,0-0.48c0.16-0.08,0.32-0.16,0.48-0.24
	c0-0.16,0-0.32,0-0.48c0.08,0,0.16,0,0.24,0c0.08-0.24,0.16-0.48,0.24-0.72c0.16-0.08,0.32-0.16,0.48-0.24c0-0.16,0-0.32,0-0.48
	c0.24-0.16,0.48-0.32,0.72-0.48c0-0.16,0-0.32,0-0.48c0.16-0.08,0.32-0.16,0.48-0.24c0-0.16,0-0.32,0-0.48
	c0.24-0.16,0.48-0.32,0.72-0.48c0-0.16,0-0.32,0-0.48c0.24-0.16,0.48-0.32,0.72-0.48c0-0.16,0-0.32,0-0.48
	c0.32-0.24,0.64-0.48,0.96-0.72c0-0.16,0-0.32,0-0.48c0.16-0.08,0.32-0.16,0.48-0.24c0-0.08,0-0.16,0-0.24
	c0.16-0.08,0.32-0.16,0.48-0.24c0-0.16,0-0.32,0-0.48c0.4-0.32,0.8-0.64,1.2-0.96c1.771-2.45,3.674-4.155,5.76-6.24
	c0.8-0.88,1.6-1.76,2.4-2.64c0.16,0,0.32,0,0.48,0c0.48-0.56,0.96-1.12,1.44-1.68c0.16,0,0.32,0,0.48,0c0.4-0.48,0.8-0.96,1.2-1.44
	c0.16,0,0.32,0,0.48,0c0.24-0.32,0.48-0.64,0.72-0.96c0.16,0,0.32,0,0.48,0c0.24-0.32,0.48-0.64,0.72-0.96c0.16,0,0.32,0,0.48,0
	c0.16-0.24,0.32-0.48,0.48-0.72c0.16,0,0.32,0,0.48,0c0.16-0.24,0.32-0.48,0.48-0.72c0.16,0,0.32,0,0.48,0
	c0.16-0.24,0.32-0.48,0.48-0.72c0.16,0,0.32,0,0.48,0c0-0.08,0-0.16,0-0.24c0.24-0.08,0.48-0.16,0.72-0.24
	c0.08-0.16,0.16-0.32,0.24-0.48c0.16,0,0.32,0,0.48,0c0.16-0.24,0.32-0.48,0.48-0.72c0.32-0.08,0.64-0.16,0.96-0.24
	c0.08-0.16,0.16-0.32,0.24-0.48c0.16,0,0.32,0,0.48,0c0.08-0.16,0.16-0.32,0.24-0.48c0.16,0,0.32,0,0.48,0
	c0.08-0.16,0.16-0.32,0.24-0.48c0.32-0.08,0.64-0.16,0.96-0.24c0.08-0.16,0.16-0.32,0.24-0.48c0.24-0.08,0.48-0.16,0.72-0.24
	c0-0.08,0-0.16,0-0.24c0.48-0.16,0.96-0.32,1.44-0.48c0.08-0.16,0.16-0.32,0.24-0.48c0.16,0,0.32,0,0.48,0c0-0.08,0-0.16,0-0.24
	c0.16,0,0.32,0,0.48,0l0.48-0.48c0.16,0,0.32,0,0.48,0c0.08-0.16,0.16-0.32,0.24-0.48c0.16,0,0.32,0,0.48,0l0.48-0.48
	c0.16,0,0.32,0,0.48,0c0-0.08,0-0.16,0-0.24c0.16,0,0.32,0,0.48,0c0-0.08,0-0.16,0-0.24c0.16,0,0.32,0,0.48,0c0-0.08,0-0.16,0-0.24
	c0.16,0,0.32,0,0.48,0c0-0.08,0-0.16,0-0.24c0.16,0,0.32,0,0.48,0c0-0.08,0-0.16,0-0.24c0.48-0.16,0.96-0.32,1.44-0.48
	c0-0.08,0-0.16,0-0.24c0.24,0,0.48,0,0.72,0c0-0.08,0-0.16,0-0.24c0.48-0.16,0.96-0.32,1.44-0.48c0-0.08,0-0.16,0-0.24
	c0.16,0,0.32,0,0.48,0c0-0.08,0-0.16,0-0.24c0.24,0,0.48,0,0.72,0c0-0.08,0-0.16,0-0.24c0.16,0,0.32,0,0.48,0c0-0.08,0-0.16,0-0.24
	c0.24,0,0.48,0,0.72,0c0-0.08,0-0.16,0-0.24c0.16,0,0.32,0,0.48,0c0-0.08,0-0.16,0-0.24c0.24,0,0.48,0,0.72,0c0-0.08,0-0.16,0-0.24
	c0.16,0,0.32,0,0.48,0c0-0.08,0-0.16,0-0.24c0.48-0.08,0.96-0.16,1.44-0.24c0-0.08,0-0.16,0-0.24c0.16,0,0.32,0,0.48,0
	c0-0.08,0-0.16,0-0.24c0.48-0.08,0.96-0.16,1.44-0.24c0-0.08,0-0.16,0-0.24c0.24,0,0.48,0,0.72,0c0-0.08,0-0.16,0-0.24
	c0.24,0,0.48,0,0.72,0c0-0.08,0-0.16,0-0.24c0.24,0,0.48,0,0.72,0c0-0.08,0-0.16,0-0.24c0.24,0,0.48,0,0.72,0c0-0.08,0-0.16,0-0.24
	c0.24,0,0.48,0,0.72,0c0-0.08,0-0.16,0-0.24c3.76-0.88,7.52-1.76,11.28-2.64c0.48,0,0.96,0,1.44,0c0-0.08,0-0.16,0-0.24
	c0.48,0,0.96,0,1.44,0c0-0.08,0-0.16,0-0.24c0.64,0,1.28,0,1.92,0c0-0.08,0-0.16,0-0.24c0.72,0,1.44,0,2.16,0c0-0.08,0-0.16,0-0.24
	c1.28-0.08,2.56-0.16,3.84-0.24c0.88,0,1.76,0,2.64,0c0-0.08,0-0.16,0-0.24c0.24,0.08,0.48,0.16,0.72,0.24c0-0.08,0-0.16,0-0.24
	c2.152-0.478,5.494,0.229,7.44,0.24c3.247,0.018,6.766,0.183,9.36,0.96c1.76,0.24,3.52,0.48,5.28,0.72c0,0.08,0,0.16,0,0.24
	c0.48,0,0.96,0,1.44,0c0,0.08,0,0.16,0,0.24c0.72,0.08,1.44,0.16,2.16,0.24c0,0.08,0,0.16,0,0.24c0.32,0,0.64,0,0.96,0
	c0,0.08,0,0.16,0,0.24c0.24,0,0.48,0,0.72,0c0,0.08,0,0.16,0,0.24c0.64,0.08,1.28,0.16,1.92,0.24c3.36,1.12,6.72,2.24,10.08,3.36
	c0,0.08,0,0.16,0,0.24c0.423,0.213,0.922,0.149,1.2,0.48c0.08,0.24,0.16,0.48,0.24,0.72c0.16,0,0.32,0,0.48,0
	c0.16,0.24,0.32,0.48,0.48,0.72c0.32,0.08,0.64,0.16,0.96,0.24c0,0.08,0,0.16,0,0.24c1.145,0.505,2.224-0.133,3.12,0.24
	c0,0.08,0,0.16,0,0.24c0.48,0.16,0.96,0.32,1.44,0.48c0,0.08,0,0.16,0,0.24c0.16,0,0.32,0,0.48,0c0,0.08,0,0.16,0,0.24
	c0.16,0,0.32,0,0.48,0c0,0.08,0,0.16,0,0.24c0.16,0,0.32,0,0.48,0l0.48,0.48c0.16,0,0.32,0,0.48,0c0.08,0.16,0.16,0.32,0.24,0.48
	c0.48,0.16,0.96,0.32,1.44,0.48c0.08,0.16,0.16,0.32,0.24,0.48c0.48,0.16,0.96,0.32,1.44,0.48c0.08,0.16,0.16,0.32,0.24,0.48
	c0.32,0.08,0.64,0.16,0.96,0.24c0,0.08,0,0.16,0,0.24c0.24,0.08,0.48,0.16,0.72,0.24c0.08,0.16,0.16,0.32,0.24,0.48
	c0.32,0.08,0.64,0.16,0.96,0.24c0.08,0.16,0.16,0.32,0.24,0.48c0.16,0,0.32,0,0.48,0c0.16,0.24,0.32,0.48,0.48,0.72
	c0.16,0,0.32,0,0.48,0c0.08,0.16,0.16,0.32,0.24,0.48c0.32,0.08,0.64,0.16,0.96,0.24c0.16,0.24,0.32,0.48,0.48,0.72
	c0.16,0,0.32,0,0.48,0c0.08,0.16,0.16,0.32,0.24,0.48c0.16,0,0.32,0,0.48,0c0.32,0.4,0.64,0.8,0.96,1.2c0.16,0,0.32,0,0.48,0
	c0.08,0.16,0.16,0.32,0.24,0.48c0.16,0,0.32,0,0.48,0c0.24,0.32,0.48,0.64,0.72,0.96c0.16,0,0.32,0,0.48,0
	c0.32,0.4,0.64,0.8,0.96,1.2c0.16,0,0.32,0,0.48,0c0.32,0.4,0.64,0.8,0.96,1.2c0.16,0,0.32,0,0.48,0c0.48,0.56,0.96,1.12,1.44,1.68
	c0.16,0,0.32,0,0.48,0c1.12,1.2,2.24,2.4,3.36,3.6c0.96,0.88,1.92,1.76,2.88,2.64c0,0.16,0,0.32,0,0.48
	c0.64,0.56,1.28,1.12,1.92,1.68c0,0.16,0,0.32,0,0.48c0.4,0.32,0.8,0.64,1.2,0.96c0,0.16,0,0.32,0,0.48c0.4,0.32,0.8,0.64,1.2,0.96
	c0,0.16,0,0.32,0,0.48c0.24,0.16,0.48,0.32,0.72,0.48c0,0.16,0,0.32,0,0.48c0.24,0.16,0.48,0.32,0.72,0.48c0,0.16,0,0.32,0,0.48
	c0.24,0.16,0.48,0.32,0.72,0.48c0,0.16,0,0.32,0,0.48c0.24,0.16,0.48,0.32,0.72,0.48c0,0.16,0,0.32,0,0.48
	c0.16,0.08,0.32,0.16,0.48,0.24c0.08,0.24,0.16,0.48,0.24,0.72c0.08,0,0.16,0,0.24,0c0,0.16,0,0.32,0,0.48
	c0.16,0.08,0.32,0.16,0.48,0.24c0,0.16,0,0.32,0,0.48c0.16,0.08,0.32,0.16,0.48,0.24c0,0.16,0,0.32,0,0.48
	c0.16,0.08,0.32,0.16,0.48,0.24c0.08,0.24,0.16,0.48,0.24,0.72c0.08,0,0.16,0,0.24,0c0.08,0.32,0.16,0.64,0.24,0.96
	c0.08,0,0.16,0,0.24,0c0.08,0.24,0.16,0.48,0.24,0.72c0.16,0.08,0.32,0.16,0.48,0.24c0,0.16,0,0.32,0,0.48c0.08,0,0.16,0,0.24,0
	c0,0.16,0,0.32,0,0.48c0.16,0.08,0.32,0.16,0.48,0.24c0,0.16,0,0.32,0,0.48c0.08,0,0.16,0,0.24,0c0,0.16,0,0.32,0,0.48l0.48,0.48
	c0,0.16,0,0.32,0,0.48c0.16,0.08,0.32,0.16,0.48,0.24c0,0.16,0,0.32,0,0.48l0.48,0.48c0,0.16,0,0.32,0,0.48c0.08,0,0.16,0,0.24,0
	c0,0.16,0,0.32,0,0.48c0.08,0,0.16,0,0.24,0c0,0.16,0,0.32,0,0.48c0.08,0,0.16,0,0.24,0c0,0.16,0,0.32,0,0.48c0.08,0,0.16,0,0.24,0
	c0,0.16,0,0.32,0,0.48c0.08,0,0.16,0,0.24,0c0,0.16,0,0.32,0,0.48c0.08,0,0.16,0,0.24,0c0,0.16,0,0.32,0,0.48c0.08,0,0.16,0,0.24,0
	c0,0.16,0,0.32,0,0.48c0.08,0,0.16,0,0.24,0c0,0.16,0,0.32,0,0.48c0.08,0,0.16,0,0.24,0c0.16,0.48,0.32,0.96,0.48,1.44
	c0.08,0,0.16,0,0.24,0c0,0.24,0,0.48,0,0.72c0.08,0,0.16,0,0.24,0c0.08,0.32,0.16,0.64,0.24,0.96c0.08,0,0.16,0,0.24,0
	c0,0.24,0,0.48,0,0.72c0.08,0,0.16,0,0.24,0c0.08,0.32,0.16,0.64,0.24,0.96c0.08,0,0.16,0,0.24,0c0,0.24,0,0.48,0,0.72
	c0.08,0,0.16,0,0.24,0c0,0.24,0,0.48,0,0.72c0.08,0,0.16,0,0.24,0c0,0.16,0,0.32,0,0.48c0.08,0,0.16,0,0.24,0c0,0.24,0,0.48,0,0.72
	c0.08,0,0.16,0,0.24,0c0,0.16,0,0.32,0,0.48c0.08,0,0.16,0,0.24,0c0.08,0.48,0.16,0.96,0.24,1.44c0.08,0,0.16,0,0.24,0
	c0,0.24,0,0.48,0,0.72c0.08,0,0.16,0,0.24,0c0,0.24,0,0.48,0,0.72c0.08,0,0.16,0,0.24,0c0,0.24,0,0.48,0,0.72c0.08,0,0.16,0,0.24,0
	c0,0.32,0,0.64,0,0.96c0.08,0,0.16,0,0.24,0c0,0.16,0,0.32,0,0.48c0.08,0,0.16,0,0.24,0c0.08,0.64,0.16,1.28,0.24,1.92
	c0.08,0,0.16,0,0.24,0c0,0.24,0,0.48,0,0.72c0.08,0,0.16,0,0.24,0c0,0.32,0,0.64,0,0.96c0.08,0,0.16,0,0.24,0c0,0.32,0,0.64,0,0.96
	c0.08,0,0.16,0,0.24,0c0,0.32,0,0.64,0,0.96c0.08,0,0.16,0,0.24,0c0,0.32,0,0.64,0,0.96c0.08,0,0.16,0,0.24,0c0,0.4,0,0.8,0,1.2
	c0.642,2.068,0.809,4.805,1.44,6.96c0,0.64,0,1.28,0,1.92c0.08,0,0.16,0,0.24,0c0.08,1.28,0.16,2.56,0.24,3.84c0,0.88,0,1.76,0,2.64
	c0.08,0,0.16,0,0.24,0c0,2.64,0,5.28,0,7.92c-0.08,0-0.16,0-0.24,0c0,1.36,0,2.72,0,4.08c-0.08,0-0.16,0-0.24,0
	c0,0.72,0,1.44,0,2.16c-0.08,0-0.16,0-0.24,0c0,0.88,0,1.76,0,2.64c-0.08,0-0.16,0-0.24,0c0,0.88,0,1.76,0,2.64
	c-0.08,0-0.16,0-0.24,0c-0.08,0.72-0.16,1.44-0.24,2.16c-0.08,0-0.16,0-0.24,0c0,0.32,0,0.64,0,0.96c-0.08,0-0.16,0-0.24,0
	c0,0.24,0,0.48,0,0.72c-0.08,0-0.16,0-0.24,0c0,0.24,0,0.48,0,0.72c-0.204,0.46-0.708,0.979-0.96,1.44
	c-1.815-0.954-6.174-1.94-8.4-0.96C228.72,148.96,228.72,148.64,228.72,148.32z"/>
<path id="left" fill-rule="evenodd" clip-rule="evenodd" fill="none" d="M104.88,246.24c0-0.16,0-0.32,0-0.48
	c-0.48-0.08-0.96-0.16-1.44-0.24c-0.08-0.24-0.16-0.48-0.24-0.72c-0.16-0.08-0.32-0.16-0.48-0.24c-0.08-0.24-0.16-0.48-0.24-0.72
	c-0.08,0-0.16,0-0.24,0c0-0.16,0-0.32,0-0.48c-0.16-0.08-0.32-0.16-0.48-0.24c-0.08-0.32-0.16-0.64-0.24-0.96
	c-0.16-0.08-0.32-0.16-0.48-0.24c-0.16-0.48-0.32-0.96-0.48-1.44c-0.16-0.08-0.32-0.16-0.48-0.24c0-0.16,0-0.32,0-0.48l-0.48-0.48
	c0-0.16,0-0.32,0-0.48c-0.08,0-0.16,0-0.24,0c0-0.16,0-0.32,0-0.48c-0.08,0-0.16,0-0.24,0c0-0.16,0-0.32,0-0.48
	c-0.08,0-0.16,0-0.24,0c0-0.16,0-0.32,0-0.48c-0.08,0-0.16,0-0.24,0c-0.16-0.48-0.32-0.96-0.48-1.44c-0.08,0-0.16,0-0.24,0
	c0-0.24,0-0.48,0-0.72c-0.08,0-0.16,0-0.24,0c0-0.16,0-0.32,0-0.48c-0.08,0-0.16,0-0.24,0c-0.16-0.48-0.32-0.96-0.48-1.44
	c-0.08,0-0.16,0-0.24,0c0-0.24,0-0.48,0-0.72c-0.08,0-0.16,0-0.24,0c0-0.16,0-0.32,0-0.48c-0.08,0-0.16,0-0.24,0
	c-0.08-0.32-0.16-0.64-0.24-0.96c-0.08,0-0.16,0-0.24,0c0-0.24,0-0.48,0-0.72c-0.08,0-0.16,0-0.24,0c-0.08-0.32-0.16-0.64-0.24-0.96
	c-0.08,0-0.16,0-0.24,0c0-0.24,0-0.48,0-0.72c-0.08,0-0.16,0-0.24,0c-0.08-0.32-0.16-0.64-0.24-0.96c-0.08,0-0.16,0-0.24,0
	c0-0.24,0-0.48,0-0.72c-0.08,0-0.16,0-0.24,0c0-0.16,0-0.32,0-0.48c-0.08,0-0.16,0-0.24,0c-0.08-0.4-0.16-0.8-0.24-1.2
	c-0.08,0-0.16,0-0.24,0c0-0.24,0-0.48,0-0.72c-0.08,0-0.16,0-0.24,0c0-0.16,0-0.32,0-0.48c-0.08,0-0.16,0-0.24,0
	c-0.08-0.4-0.16-0.8-0.24-1.2c-0.08,0-0.16,0-0.24,0c0-0.24,0-0.48,0-0.72c-0.08,0-0.16,0-0.24,0c0-0.16,0-0.32,0-0.48
	c-0.08,0-0.16,0-0.24,0c-0.08-0.48-0.16-0.96-0.24-1.44c-0.08,0-0.16,0-0.24,0c0-0.16,0-0.32,0-0.48c-0.08,0-0.16,0-0.24,0
	c-0.08-0.48-0.16-0.96-0.24-1.44c-0.08,0-0.16,0-0.24,0c0-0.16,0-0.32,0-0.48c-0.08,0-0.16,0-0.24,0c-0.16-0.72-0.32-1.44-0.48-2.16
	c-0.08,0-0.16,0-0.24,0c0-0.16,0-0.32,0-0.48c-0.08,0-0.16,0-0.24,0c0-0.24,0-0.48,0-0.72c-0.08,0-0.16,0-0.24,0
	c0-0.24,0-0.48,0-0.72c-0.08,0-0.16,0-0.24,0c0-0.24,0-0.48,0-0.72c-0.08,0-0.16,0-0.24,0c0-0.24,0-0.48,0-0.72
	c-0.08,0-0.16,0-0.24,0c0-0.16,0-0.32,0-0.48c-0.08,0-0.16,0-0.24,0c-0.16-0.8-0.32-1.6-0.48-2.4c-0.08,0-0.16,0-0.24,0
	c0-0.24,0-0.48,0-0.72c-0.08,0-0.16,0-0.24,0c0-0.16,0-0.32,0-0.48c-0.08,0-0.16,0-0.24,0c-0.08-0.56-0.16-1.12-0.24-1.68
	c-0.08,0-0.16,0-0.24,0c0-0.24,0-0.48,0-0.72c-0.08,0-0.16,0-0.24,0c0-0.24,0-0.48,0-0.72c-0.08,0-0.16,0-0.24,0
	c0-0.24,0-0.48,0-0.72c-0.08,0-0.16,0-0.24,0c0-0.24,0-0.48,0-0.72c-0.08,0-0.16,0-0.24,0c0-0.24,0-0.48,0-0.72
	c-0.08,0-0.16,0-0.24,0c-0.08-0.56-0.16-1.12-0.24-1.68c-0.08,0-0.16,0-0.24,0c-0.16-0.8-0.32-1.6-0.48-2.4c-0.08,0-0.16,0-0.24,0
	c-0.16-0.88-0.32-1.76-0.48-2.64c-0.08,0-0.16,0-0.24,0c-0.16-0.96-0.32-1.92-0.48-2.88c-0.08,0-0.16,0-0.24,0c0-0.24,0-0.48,0-0.72
	c-0.08,0-0.16,0-0.24,0c-0.56-2.8-1.12-5.6-1.68-8.4c0-1.04,0-2.08,0-3.12c0,0-0.358-0.198-0.24-0.72c0.08,0,0.16,0,0.24,0
	c0-0.48,0-0.96,0-1.44c0.08,0,0.16,0,0.24,0c0.163-0.62,0.581-1.266,0.96-1.68c0.16-0.08,0.32-0.16,0.48-0.24c0-0.16,0-0.32,0-0.48
	c0.24-0.16,0.48-0.32,0.72-0.48c0.48-0.56,0.96-1.12,1.44-1.68c0.16,0,0.32,0,0.48,0c0.08-0.16,0.16-0.32,0.24-0.48
	c0.48-0.16,0.96-0.32,1.44-0.48c0-0.08,0-0.16,0-0.24c0.24,0,0.48,0,0.72,0c2.504-1,5.084-1.227,7.68-0.24c0.24,0,0.48,0,0.72,0
	c0,0.08,0,0.16,0,0.24c0.16,0,0.32,0,0.48,0c0,0.08,0,0.16,0,0.24c0.16,0,0.32,0,0.48,0c0.08,0.16,0.16,0.32,0.24,0.48
	c0.16,0,0.32,0,0.48,0c0.08,0.16,0.16,0.32,0.24,0.48c0.16,0,0.32,0,0.48,0c0.16,0.24,0.32,0.48,0.48,0.72c0.16,0,0.32,0,0.48,0
	c0.24,0.32,0.48,0.64,0.72,0.96c0.16,0.08,0.32,0.16,0.48,0.24c0,0.16,0,0.32,0,0.48c0.32,0.24,0.64,0.48,0.96,0.72
	c0.08,0.24,0.16,0.48,0.24,0.72c0.16,0.08,0.32,0.16,0.48,0.24c0,0.16,0,0.32,0,0.48c0.08,0,0.16,0,0.24,0c0,0.16,0,0.32,0,0.48
	c0.16,0.08,0.32,0.16,0.48,0.24c0.16,0.48,0.32,0.96,0.48,1.44c0.16,0.08,0.32,0.16,0.48,0.24c0,0.16,0,0.32,0,0.48l0.48,0.48
	c0,0.16,0,0.32,0,0.48c0.08,0,0.16,0,0.24,0c0,0.16,0,0.32,0,0.48c0.08,0,0.16,0,0.24,0c0,0.16,0,0.32,0,0.48c0.08,0,0.16,0,0.24,0
	c0,0.16,0,0.32,0,0.48c0.08,0,0.16,0,0.24,0c0.16,0.48,0.32,0.96,0.48,1.44c0.08,0,0.16,0,0.24,0c0,0.24,0,0.48,0,0.72
	c0.08,0,0.16,0,0.24,0c0.08,0.32,0.16,0.64,0.24,0.96c0.08,0,0.16,0,0.24,0c0,0.24,0,0.48,0,0.72c0.08,0,0.16,0,0.24,0
	c0,0.16,0,0.32,0,0.48c0.08,0,0.16,0,0.24,0c0.08,0.32,0.16,0.64,0.24,0.96c0.08,0,0.16,0,0.24,0c0,0.24,0,0.48,0,0.72
	c0.08,0,0.16,0,0.24,0c0.08,0.32,0.16,0.64,0.24,0.96c0.08,0,0.16,0,0.24,0c0,0.24,0,0.48,0,0.72c0.08,0,0.16,0,0.24,0
	c0,0.16,0,0.32,0,0.48c0.08,0,0.16,0,0.24,0c0.08,0.4,0.16,0.8,0.24,1.2c0.08,0,0.16,0,0.24,0c0,0.24,0,0.48,0,0.72
	c2.963,6.722,5.37,14.226,7.92,21.36c0,0.32,0,0.64,0,0.96c0.08,0,0.16,0,0.24,0c0,0.24,0,0.48,0,0.72c0.08,0,0.16,0,0.24,0
	c0,0.24,0,0.48,0,0.72c0.08,0,0.16,0,0.24,0c0.16,0.8,0.32,1.6,0.48,2.4c0.08,0,0.16,0,0.24,0c0.08,0.56,0.16,1.12,0.24,1.68
	c0.08,0,0.16,0,0.24,0c0.16,0.88,0.32,1.76,0.48,2.64c0.08,0,0.16,0,0.24,0c0.16,1.04,0.32,2.08,0.48,3.12c0.08,0,0.16,0,0.24,0
	c0.08,0.8,0.16,1.6,0.24,2.4c1.434,4.728,0.288,10.095-1.92,13.2c-0.08,0-0.16,0-0.24,0c-0.24,0.32-0.48,0.64-0.72,0.96
	c-0.16,0-0.32,0-0.48,0c-0.24,0.32-0.48,0.64-0.72,0.96c-0.32,0.08-0.64,0.16-0.96,0.24c-0.08,0.16-0.16,0.32-0.24,0.48
	c-0.16,0-0.32,0-0.48,0c-1.072,0.594-4.579,2.079-6.72,1.44c0-0.08,0-0.16,0-0.24c-0.64-0.08-1.28-0.16-1.92-0.24
	c0-0.08,0-0.16,0-0.24c-0.24,0-0.48,0-0.72,0c0-0.08,0-0.16,0-0.24C105.458,246.451,105.431,246.387,104.88,246.24z"/>
<path id="right" fill-rule="evenodd" clip-rule="evenodd" fill="none" d="M183.6,245.04c0,0.16,0,0.32,0,0.48c-0.16,0-0.32,0-0.48,0
	c-0.08,0.24-0.16,0.48-0.24,0.72c-0.45,0.25-0.986,0.774-1.44,0.96c-0.64,0.08-1.28,0.16-1.92,0.24c0,0.08,0,0.16,0,0.24
	c-0.958,0.302-4.445-0.24-5.04-0.48c0-0.08,0-0.16,0-0.24c-0.16,0-0.32,0-0.48,0c0-0.08,0-0.16,0-0.24c-0.24,0-0.48,0-0.72,0
	c0-0.08,0-0.16,0-0.24c-0.16,0-0.32,0-0.48,0c0-0.08,0-0.16,0-0.24c-0.16,0-0.32,0-0.48,0c-0.08-0.16-0.16-0.32-0.24-0.48
	c-0.32-0.08-0.64-0.16-0.96-0.24c-0.24-0.32-0.48-0.64-0.72-0.96c-0.16,0-0.32,0-0.48,0c0-0.08,0-0.16,0-0.24
	c-0.24-0.16-0.48-0.32-0.72-0.48c0-0.16,0-0.32,0-0.48c-0.24-0.16-0.48-0.32-0.72-0.48c-0.56-1.2-1.12-2.4-1.68-3.6
	c0-0.4,0-0.8,0-1.2c-0.08,0-0.16,0-0.24,0c-0.08-1.12-0.16-2.24-0.24-3.36c0.093-0.326,0.189,0.096,0.24-0.24c0-0.88,0-1.76,0-2.64
	c0.08,0,0.16,0,0.24,0c0-0.48,0-0.96,0-1.44c0.08,0,0.16,0,0.24,0c0-0.4,0-0.8,0-1.2c0.08,0,0.16,0,0.24,0c0-0.4,0-0.8,0-1.2
	c0.08,0,0.16,0,0.24,0c0.16-1.04,0.32-2.08,0.48-3.12c0.08,0,0.16,0,0.24,0c0.16-0.88,0.32-1.76,0.48-2.64c0.08,0,0.16,0,0.24,0
	c0-0.24,0-0.48,0-0.72c0.08,0,0.16,0,0.24,0c0-0.32,0-0.64,0-0.96c0.08,0,0.16,0,0.24,0c0-0.24,0-0.48,0-0.72c0.08,0,0.16,0,0.24,0
	c0-0.32,0-0.64,0-0.96c0.08,0,0.16,0,0.24,0c0.24-1.04,0.48-2.08,0.72-3.12c0.08,0,0.16,0,0.24,0c0.08-0.48,0.16-0.96,0.24-1.44
	c0.08,0,0.16,0,0.24,0c0-0.24,0-0.48,0-0.72c0.08,0,0.16,0,0.24,0c0-0.24,0-0.48,0-0.72c0.08,0,0.16,0,0.24,0c0-0.24,0-0.48,0-0.72
	c0.08,0,0.16,0,0.24,0c0-0.24,0-0.48,0-0.72c0.08,0,0.16,0,0.24,0c0-0.24,0-0.48,0-0.72c0.08,0,0.16,0,0.24,0c0-0.24,0-0.48,0-0.72
	c0.08,0,0.16,0,0.24,0c0-0.24,0-0.48,0-0.72c0.08,0,0.16,0,0.24,0c0-0.24,0-0.48,0-0.72c0.08,0,0.16,0,0.24,0c0-0.24,0-0.48,0-0.72
	c0.08,0,0.16,0,0.24,0c0-0.24,0-0.48,0-0.72c0.08,0,0.16,0,0.24,0c0-0.16,0-0.32,0-0.48c0.08,0,0.16,0,0.24,0c0-0.24,0-0.48,0-0.72
	c0.08,0,0.16,0,0.24,0c0-0.24,0-0.48,0-0.72c0.08,0,0.16,0,0.24,0c0-0.24,0-0.48,0-0.72c0.08,0,0.16,0,0.24,0c0-0.24,0-0.48,0-0.72
	c0.08,0,0.16,0,0.24,0c0-0.24,0-0.48,0-0.72c0.08,0,0.16,0,0.24,0c0-0.16,0-0.32,0-0.48c0.08,0,0.16,0,0.24,0
	c0.08-0.48,0.16-0.96,0.24-1.44c0.08,0,0.16,0,0.24,0c0-0.16,0-0.32,0-0.48c0.08,0,0.16,0,0.24,0c0.08-0.48,0.16-0.96,0.24-1.44
	c0.08,0,0.16,0,0.24,0c0-0.16,0-0.32,0-0.48c0.08,0,0.16,0,0.24,0c0.08-0.48,0.16-0.96,0.24-1.44c0.08,0,0.16,0,0.24,0
	c0-0.16,0-0.32,0-0.48c0.08,0,0.16,0,0.24,0c0.48-1.44,0.96-2.88,1.44-4.32c0.08,0,0.16,0,0.24,0c0-0.16,0-0.32,0-0.48
	c0.08,0,0.16,0,0.24,0c0-0.24,0-0.48,0-0.72c0.08,0,0.16,0,0.24,0c0.08-0.32,0.16-0.64,0.24-0.96c0.08,0,0.16,0,0.24,0
	c0-0.24,0-0.48,0-0.72c0.08,0,0.16,0,0.24,0c0.08-0.32,0.16-0.64,0.24-0.96c0.08,0,0.16,0,0.24,0c0-0.24,0-0.48,0-0.72
	c0.08,0,0.16,0,0.24,0c0.08-0.32,0.16-0.64,0.24-0.96c0.08,0,0.16,0,0.24,0c0.08-0.4,0.16-0.8,0.24-1.2c0.08,0,0.16,0,0.24,0
	c0-0.16,0-0.32,0-0.48c0.08,0,0.16,0,0.24,0c0-0.16,0-0.32,0-0.48c0.08,0,0.16,0,0.24,0c0-0.16,0-0.32,0-0.48c0.08,0,0.16,0,0.24,0
	c0-0.16,0-0.32,0-0.48c0.08,0,0.16,0,0.24,0c0-0.16,0-0.32,0-0.48c0.08,0,0.16,0,0.24,0c0-0.16,0-0.32,0-0.48c0.08,0,0.16,0,0.24,0
	c0.16-0.48,0.32-0.96,0.48-1.44c0.16-0.08,0.32-0.16,0.48-0.24c0-0.16,0-0.32,0-0.48l0.48-0.48c0-0.16,0-0.32,0-0.48
	c0.16-0.08,0.32-0.16,0.48-0.24c0-0.16,0-0.32,0-0.48c0.08,0,0.16,0,0.24,0c0.08-0.24,0.16-0.48,0.24-0.72
	c0.16-0.08,0.32-0.16,0.48-0.24c0-0.16,0-0.32,0-0.48c0.32-0.24,0.64-0.48,0.96-0.72c0-0.16,0-0.32,0-0.48
	c0.16-0.08,0.32-0.16,0.48-0.24c0.24-0.32,0.48-0.64,0.72-0.96c0.16,0,0.32,0,0.48,0c0.16-0.24,0.32-0.48,0.48-0.72
	c0.16,0,0.32,0,0.48,0c0.08-0.16,0.16-0.32,0.24-0.48c0.16,0,0.32,0,0.48,0c0.08-0.16,0.16-0.32,0.24-0.48c0.16,0,0.32,0,0.48,0
	c0-0.08,0-0.16,0-0.24c0.16,0,0.32,0,0.48,0c0-0.08,0-0.16,0-0.24c0.24,0,0.48,0,0.72,0c0.695-0.277,3.066-1.098,4.32-0.72
	c0,0.08,0,0.16,0,0.24c0.56,0,1.12,0,1.68,0c0,0.08,0,0.16,0,0.24c0.32,0,0.64,0,0.96,0c0,0.08,0,0.16,0,0.24
	c0.48,0.08,0.96,0.16,1.44,0.24c0,0.08,0,0.16,0,0.24c0.32,0.08,0.64,0.16,0.96,0.24c0,0.08,0,0.16,0,0.24c0.16,0,0.32,0,0.48,0
	c0.08,0.16,0.16,0.32,0.24,0.48c0.16,0,0.32,0,0.48,0c0.4,0.48,0.8,0.96,1.2,1.44c0.32,0.24,0.64,0.48,0.96,0.72
	c0,0.16,0,0.32,0,0.48c0.4,0.32,0.8,0.64,1.2,0.96c0.08,0.32,0.16,0.64,0.24,0.96c0.08,0,0.16,0,0.24,0
	c0.08,1.04,0.16,2.08,0.24,3.12c-0.08,0-0.16,0-0.24,0c0,0.72,0,1.44,0,2.16c-0.08,0-0.16,0-0.24,0c0,0.48,0,0.96,0,1.44
	c-0.08,0-0.16,0-0.24,0c0,0.4,0,0.8,0,1.2c-0.08,0-0.16,0-0.24,0c0,0.48,0,0.96,0,1.44c-0.08,0-0.16,0-0.24,0c0,0.4,0,0.8,0,1.2
	c-0.08,0-0.16,0-0.24,0c0,0.32,0,0.64,0,0.96c-0.08,0-0.16,0-0.24,0c0,0.4,0,0.8,0,1.2c-0.08,0-0.16,0-0.24,0
	c-0.16,0.96-0.32,1.92-0.48,2.88c-0.08,0-0.16,0-0.24,0c-0.08,0.56-0.16,1.12-0.24,1.68c-0.08,0-0.16,0-0.24,0
	c-0.16,0.88-0.32,1.76-0.48,2.64c-0.08,0-0.16,0-0.24,0c0,0.24,0,0.48,0,0.72c-0.08,0-0.16,0-0.24,0c0,0.24,0,0.48,0,0.72
	c-0.08,0-0.16,0-0.24,0c0,0.32,0,0.64,0,0.96c-0.08,0-0.16,0-0.24,0c0,0.24,0,0.48,0,0.72c-0.08,0-0.16,0-0.24,0
	c0,0.32,0,0.64,0,0.96c-0.08,0-0.16,0-0.24,0c-0.16,0.72-0.32,1.44-0.48,2.16c-0.08,0-0.16,0-0.24,0c0,0.24,0,0.48,0,0.72
	c-0.08,0-0.16,0-0.24,0c0,0.24,0,0.48,0,0.72c-0.08,0-0.16,0-0.24,0c0,0.24,0,0.48,0,0.72c-0.08,0-0.16,0-0.24,0
	c0,0.24,0,0.48,0,0.72c-0.08,0-0.16,0-0.24,0c0,0.24,0,0.48,0,0.72c-0.08,0-0.16,0-0.24,0c0,0.32,0,0.64,0,0.96
	c-0.08,0-0.16,0-0.24,0c0,0.16,0,0.32,0,0.48c-0.08,0-0.16,0-0.24,0c0,0.24,0,0.48,0,0.72c-0.08,0-0.16,0-0.24,0
	c0,0.24,0,0.48,0,0.72c-0.08,0-0.16,0-0.24,0c0,0.24,0,0.48,0,0.72c-0.08,0-0.16,0-0.24,0c-0.08,0.48-0.16,0.96-0.24,1.44
	c-0.08,0-0.16,0-0.24,0c-0.08,0.48-0.16,0.96-0.24,1.44c-0.08,0-0.16,0-0.24,0c0,0.16,0,0.32,0,0.48c-0.08,0-0.16,0-0.24,0
	c0,0.24,0,0.48,0,0.72c-0.08,0-0.16,0-0.24,0c0,0.24,0,0.48,0,0.72c-0.08,0-0.16,0-0.24,0c0,0.16,0,0.32,0,0.48
	c-0.08,0-0.16,0-0.24,0c0,0.32,0,0.64,0,0.96c-0.08,0-0.16,0-0.24,0c0,0.16,0,0.32,0,0.48c-0.08,0-0.16,0-0.24,0
	c0,0.24,0,0.48,0,0.72c-0.08,0-0.16,0-0.24,0c0,0.16,0,0.32,0,0.48c-0.08,0-0.16,0-0.24,0c-0.08,0.48-0.16,0.96-0.24,1.44
	c-0.08,0-0.16,0-0.24,0c0,0.16,0,0.32,0,0.48c-0.08,0-0.16,0-0.24,0c0,0.24,0,0.48,0,0.72c-0.08,0-0.16,0-0.24,0
	c0,0.16,0,0.32,0,0.48c-0.08,0-0.16,0-0.24,0c0,0.24,0,0.48,0,0.72c-0.08,0-0.16,0-0.24,0c-0.08,0.32-0.16,0.64-0.24,0.96
	c-0.08,0-0.16,0-0.24,0c-0.08,0.48-0.16,0.96-0.24,1.44c-0.08,0-0.16,0-0.24,0c0,0.16,0,0.32,0,0.48c-0.08,0-0.16,0-0.24,0
	c0,0.24,0,0.48,0,0.72c-0.08,0-0.16,0-0.24,0c-0.08,0.32-0.16,0.64-0.24,0.96c-0.08,0-0.16,0-0.24,0c-0.08,0.4-0.16,0.8-0.24,1.2
	c-0.08,0-0.16,0-0.24,0c0,0.24,0,0.48,0,0.72c-0.08,0-0.16,0-0.24,0c0,0.16,0,0.32,0,0.48c-0.08,0-0.16,0-0.24,0
	c0,0.16,0,0.32,0,0.48c-0.08,0-0.16,0-0.24,0c0,0.16,0,0.32,0,0.48c-0.08,0-0.16,0-0.24,0c0,0.24,0,0.48,0,0.72
	c-0.08,0-0.16,0-0.24,0c0,0.16,0,0.32,0,0.48c-0.08,0-0.16,0-0.24,0c0,0.16,0,0.32,0,0.48c-0.08,0-0.16,0-0.24,0
	c0,0.16,0,0.32,0,0.48c-0.08,0-0.16,0-0.24,0c0,0.16,0,0.32,0,0.48c-0.08,0-0.16,0-0.24,0c0,0.16,0,0.32,0,0.48
	c-0.08,0-0.16,0-0.24,0c0,0.24,0,0.48,0,0.72c-0.08,0-0.16,0-0.24,0c0,0.16,0,0.32,0,0.48c-0.08,0-0.16,0-0.24,0
	c0,0.16,0,0.32,0,0.48c-0.16,0.08-0.32,0.16-0.48,0.24c0,0.16,0,0.32,0,0.48c-0.08,0-0.16,0-0.24,0c0,0.24,0,0.48,0,0.72
	c-0.08,0-0.16,0-0.24,0c0,0.16,0,0.32,0,0.48c-0.08,0-0.16,0-0.24,0c0,0.16,0,0.32,0,0.48c-0.16,0.08-0.32,0.16-0.48,0.24
	c0,0.16,0,0.32,0,0.48c-0.08,0-0.16,0-0.24,0c0,0.16,0,0.32,0,0.48l-0.48,0.48c0,0.16,0,0.32,0,0.48c-0.16,0.08-0.32,0.16-0.48,0.24
	c0,0.16,0,0.32,0,0.48c-0.08,0-0.16,0-0.24,0c0,0.16,0,0.32,0,0.48c-0.08,0-0.16,0-0.24,0c0,0.16,0,0.32,0,0.48
	c-0.16,0.08-0.32,0.16-0.48,0.24c0,0.16,0,0.32,0,0.48c-0.24,0.16-0.48,0.32-0.72,0.48c-0.08,0.16-0.16,0.32-0.24,0.48
	c-0.24-0.08-0.48-0.16-0.72-0.24C184.383,245.117,184.273,244.952,183.6,245.04z"/>
</svg>
